solid Blank_Module_Frame
facet normal 0.0 1.0 0.0
  outer loop
    vertex 5.749999999999998 3.9323791550029523 0.1250000000000009
    vertex 6.999999999999989 3.9323791550029523 4.440892098500626e-16
    vertex 5.749999999999998 3.9323791550029523 4.440892098500626e-16
  endloop
endfacet
facet normal 0.0 1.0 0.0
  outer loop
    vertex 6.999999999999989 3.9323791550029523 4.440892098500626e-16
    vertex 5.749999999999998 3.9323791550029523 0.1250000000000009
    vertex 6.999999999999989 3.9323791550029523 0.1250000000000009
  endloop
endfacet
facet normal 1.0 0.0 0.0
  outer loop
    vertex 5.749999999999998 4.682379155002952 4.440892098500626e-16
    vertex 5.749999999999998 3.9323791550029523 0.1250000000000009
    vertex 5.749999999999998 3.9323791550029523 4.440892098500626e-16
  endloop
endfacet
facet normal 1.0 0.0 0.0
  outer loop
    vertex 5.749999999999998 3.9323791550029523 0.1250000000000009
    vertex 5.749999999999998 4.682379155002952 4.440892098500626e-16
    vertex 5.749999999999998 4.682379155002952 0.1250000000000009
  endloop
endfacet
facet normal 0.0 1.0 0.0
  outer loop
    vertex 3.8749999999999996 5.05737915500295 0.2500000000000009
    vertex 5.374999999999995 5.05737915500295 0.1250000000000009
    vertex 3.8749999999999996 5.05737915500295 0.1250000000000009
  endloop
endfacet
facet normal 0.0 1.0 0.0
  outer loop
    vertex 5.374999999999995 5.05737915500295 0.1250000000000009
    vertex 3.8749999999999996 5.05737915500295 0.2500000000000009
    vertex 5.374999999999995 5.05737915500295 0.2500000000000009
  endloop
endfacet
facet normal -1.0 0.0 0.0
  outer loop
    vertex 5.249999999999995 5.93237915500295 0.1250000000000009
    vertex 5.249999999999995 5.18237915500295 1.7763568394002505e-15
    vertex 5.249999999999995 5.18237915500295 0.1250000000000009
  endloop
endfacet
facet normal -1.0 0.0 0.0
  outer loop
    vertex 5.249999999999995 5.18237915500295 1.7763568394002505e-15
    vertex 5.249999999999995 5.93237915500295 0.1250000000000009
    vertex 5.249999999999995 5.93237915500295 1.7763568394002505e-15
  endloop
endfacet
facet normal -0.0 -0.0 1.0
  outer loop
    vertex 0.37500000000000444 3.8073791550029505 0.1250000000000009
    vertex 0.5000000000000044 3.9323791550029523 0.1250000000000009
    vertex 0.37500000000000444 4.80737915500295 0.1250000000000009
  endloop
endfacet
facet normal -0.0 -0.0 1.0
  outer loop
    vertex 0.5000000000000044 3.9323791550029523 0.1250000000000009
    vertex 0.37500000000000444 3.8073791550029505 0.1250000000000009
    vertex 1.8750000000000044 3.8073791550029505 0.1250000000000009
  endloop
endfacet
facet normal -0.0 -0.0 1.0
  outer loop
    vertex 0.5000000000000044 3.9323791550029523 0.1250000000000009
    vertex 1.8750000000000044 3.8073791550029505 0.1250000000000009
    vertex 1.7499999999999973 3.9323791550029523 0.1250000000000009
  endloop
endfacet
facet normal -0.0 -0.0 1.0
  outer loop
    vertex 1.7499999999999973 3.9323791550029523 0.1250000000000009
    vertex 1.8750000000000044 3.8073791550029505 0.1250000000000009
    vertex 1.7499999999999973 4.682379155002952 0.1250000000000009
  endloop
endfacet
facet normal -0.0 -0.0 1.0
  outer loop
    vertex 0.37500000000000444 4.80737915500295 0.1250000000000009
    vertex 0.5000000000000044 4.682379155002952 0.1250000000000009
    vertex 1.8750000000000044 4.80737915500295 0.1250000000000009
  endloop
endfacet
facet normal -0.0 -0.0 1.0
  outer loop
    vertex 0.5000000000000044 4.682379155002952 0.1250000000000009
    vertex 0.37500000000000444 4.80737915500295 0.1250000000000009
    vertex 0.5000000000000044 3.9323791550029523 0.1250000000000009
  endloop
endfacet
facet normal -0.0 -0.0 1.0
  outer loop
    vertex 1.8750000000000044 4.80737915500295 0.1250000000000009
    vertex 0.5000000000000044 4.682379155002952 0.1250000000000009
    vertex 1.7499999999999973 4.682379155002952 0.1250000000000009
  endloop
endfacet
facet normal -0.0 -0.0 1.0
  outer loop
    vertex 1.8750000000000044 4.80737915500295 0.1250000000000009
    vertex 1.7499999999999973 4.682379155002952 0.1250000000000009
    vertex 1.8750000000000044 3.8073791550029505 0.1250000000000009
  endloop
endfacet
facet normal 0.0 -1.0 0.0
  outer loop
    vertex 6.999999999999989 4.682379155002952 0.1250000000000009
    vertex 5.749999999999998 4.682379155002952 4.440892098500626e-16
    vertex 6.999999999999989 4.682379155002952 4.440892098500626e-16
  endloop
endfacet
facet normal 0.0 -1.0 0.0
  outer loop
    vertex 5.749999999999998 4.682379155002952 4.440892098500626e-16
    vertex 6.999999999999989 4.682379155002952 0.1250000000000009
    vertex 5.749999999999998 4.682379155002952 0.1250000000000009
  endloop
endfacet
facet normal 1.0 0.0 0.0
  outer loop
    vertex 3.9999999999999987 4.682379155002952 1.7763568394002505e-15
    vertex 3.9999999999999987 3.9323791550029523 0.1250000000000009
    vertex 3.9999999999999987 3.9323791550029523 1.7763568394002505e-15
  endloop
endfacet
facet normal 1.0 0.0 0.0
  outer loop
    vertex 3.9999999999999987 3.9323791550029523 0.1250000000000009
    vertex 3.9999999999999987 4.682379155002952 1.7763568394002505e-15
    vertex 3.9999999999999987 4.682379155002952 0.1250000000000009
  endloop
endfacet
facet normal 1.0 0.0 0.0
  outer loop
    vertex 2.125000000000001 6.057379155002948 0.1250000000000009
    vertex 2.125000000000001 5.05737915500295 0.2500000000000009
    vertex 2.125000000000001 5.05737915500295 0.1250000000000009
  endloop
endfacet
facet normal 1.0 0.0 0.0
  outer loop
    vertex 2.125000000000001 5.05737915500295 0.2500000000000009
    vertex 2.125000000000001 6.057379155002948 0.1250000000000009
    vertex 2.125000000000001 6.057379155002948 0.2500000000000009
  endloop
endfacet
facet normal 0.0 -1.0 0.0
  outer loop
    vertex 1.7499999999999973 4.682379155002952 0.1250000000000009
    vertex 0.5000000000000044 4.682379155002952 0.0
    vertex 1.7499999999999973 4.682379155002952 0.0
  endloop
endfacet
facet normal 0.0 -1.0 0.0
  outer loop
    vertex 0.5000000000000044 4.682379155002952 0.0
    vertex 1.7499999999999973 4.682379155002952 0.1250000000000009
    vertex 0.5000000000000044 4.682379155002952 0.1250000000000009
  endloop
endfacet
facet normal 1.0 0.0 0.0
  outer loop
    vertex 3.9999999999999987 5.93237915500295 1.7763568394002505e-15
    vertex 3.9999999999999987 5.18237915500295 0.1250000000000009
    vertex 3.9999999999999987 5.18237915500295 1.7763568394002505e-15
  endloop
endfacet
facet normal 1.0 0.0 0.0
  outer loop
    vertex 3.9999999999999987 5.18237915500295 0.1250000000000009
    vertex 3.9999999999999987 5.93237915500295 1.7763568394002505e-15
    vertex 3.9999999999999987 5.93237915500295 0.1250000000000009
  endloop
endfacet
facet normal 0.0 -1.0 0.0
  outer loop
    vertex 5.374999999999995 6.057379155002948 0.2500000000000009
    vertex 3.8749999999999996 6.057379155002948 0.1250000000000009
    vertex 5.374999999999995 6.057379155002948 0.1250000000000009
  endloop
endfacet
facet normal 0.0 -1.0 0.0
  outer loop
    vertex 3.8749999999999996 6.057379155002948 0.1250000000000009
    vertex 5.374999999999995 6.057379155002948 0.2500000000000009
    vertex 3.8749999999999996 6.057379155002948 0.2500000000000009
  endloop
endfacet
facet normal 0.0 0.0 1.0
  outer loop
    vertex 2.125000000000001 5.05737915500295 0.1250000000000009
    vertex 2.25 5.18237915500295 0.1250000000000009
    vertex 2.125000000000001 6.057379155002948 0.1250000000000009
  endloop
endfacet
facet normal 0.0 0.0 1.0
  outer loop
    vertex 2.25 5.18237915500295 0.1250000000000009
    vertex 2.125000000000001 5.05737915500295 0.1250000000000009
    vertex 3.624999999999999 5.05737915500295 0.1250000000000009
  endloop
endfacet
facet normal 0.0 0.0 1.0
  outer loop
    vertex 2.25 5.18237915500295 0.1250000000000009
    vertex 3.624999999999999 5.05737915500295 0.1250000000000009
    vertex 3.499999999999999 5.18237915500295 0.1250000000000009
  endloop
endfacet
facet normal 0.0 0.0 1.0
  outer loop
    vertex 3.499999999999999 5.18237915500295 0.1250000000000009
    vertex 3.624999999999999 5.05737915500295 0.1250000000000009
    vertex 3.499999999999999 5.93237915500295 0.1250000000000009
  endloop
endfacet
facet normal 0.0 0.0 1.0
  outer loop
    vertex 2.125000000000001 6.057379155002948 0.1250000000000009
    vertex 2.25 5.93237915500295 0.1250000000000009
    vertex 3.624999999999999 6.057379155002948 0.1250000000000009
  endloop
endfacet
facet normal 0.0 0.0 1.0
  outer loop
    vertex 2.25 5.93237915500295 0.1250000000000009
    vertex 2.125000000000001 6.057379155002948 0.1250000000000009
    vertex 2.25 5.18237915500295 0.1250000000000009
  endloop
endfacet
facet normal 0.0 0.0 1.0
  outer loop
    vertex 3.624999999999999 6.057379155002948 0.1250000000000009
    vertex 2.25 5.93237915500295 0.1250000000000009
    vertex 3.499999999999999 5.93237915500295 0.1250000000000009
  endloop
endfacet
facet normal 0.0 0.0 1.0
  outer loop
    vertex 3.624999999999999 6.057379155002948 0.1250000000000009
    vertex 3.499999999999999 5.93237915500295 0.1250000000000009
    vertex 3.624999999999999 5.05737915500295 0.1250000000000009
  endloop
endfacet
facet normal 0.0 -1.0 0.0
  outer loop
    vertex 3.499999999999999 4.682379155002952 0.1250000000000009
    vertex 2.25 4.682379155002952 1.3322676295501878e-15
    vertex 3.499999999999999 4.682379155002952 1.3322676295501878e-15
  endloop
endfacet
facet normal 0.0 -1.0 0.0
  outer loop
    vertex 2.25 4.682379155002952 1.3322676295501878e-15
    vertex 3.499999999999999 4.682379155002952 0.1250000000000009
    vertex 2.25 4.682379155002952 0.1250000000000009
  endloop
endfacet
facet normal 0.0 1.0 0.0
  outer loop
    vertex 0.0 6.182379155002948 8.881784197001252e-16
    vertex 7.499999999999989 6.182379155002948 0.2500000000000009
    vertex 7.499999999999989 6.182379155002948 4.440892098500626e-16
  endloop
endfacet
facet normal 0.0 1.0 0.0
  outer loop
    vertex 7.499999999999989 6.182379155002948 0.2500000000000009
    vertex 0.0 6.182379155002948 8.881784197001252e-16
    vertex 0.0 6.182379155002948 0.2500000000000009
  endloop
endfacet
facet normal -1.0 0.0 0.0
  outer loop
    vertex 0.0 6.182379155002948 0.2500000000000009
    vertex 0.0 5.93237915500295 8.881784197001252e-16
    vertex 0.0 5.93237915500295 0.2500000000000009
  endloop
endfacet
facet normal -1.0 0.0 0.0
  outer loop
    vertex 0.0 5.93237915500295 8.881784197001252e-16
    vertex 0.0 6.182379155002948 0.2500000000000009
    vertex 0.0 6.182379155002948 8.881784197001252e-16
  endloop
endfacet
facet normal 0.0 -1.0 0.0
  outer loop
    vertex 6.999999999999989 5.93237915500295 0.1250000000000009
    vertex 5.749999999999998 5.93237915500295 4.440892098500626e-16
    vertex 6.999999999999989 5.93237915500295 4.440892098500626e-16
  endloop
endfacet
facet normal 0.0 -1.0 0.0
  outer loop
    vertex 5.749999999999998 5.93237915500295 4.440892098500626e-16
    vertex 6.999999999999989 5.93237915500295 0.1250000000000009
    vertex 5.749999999999998 5.93237915500295 0.1250000000000009
  endloop
endfacet
facet normal 1.0 0.0 0.0
  outer loop
    vertex 7.499999999999989 6.182379155002948 4.440892098500626e-16
    vertex 7.499999999999989 5.93237915500295 0.2500000000000009
    vertex 7.499999999999989 5.93237915500295 4.440892098500626e-16
  endloop
endfacet
facet normal 1.0 0.0 0.0
  outer loop
    vertex 7.499999999999989 5.93237915500295 0.2500000000000009
    vertex 7.499999999999989 6.182379155002948 4.440892098500626e-16
    vertex 7.499999999999989 6.182379155002948 0.2500000000000009
  endloop
endfacet
facet normal -1.0 0.0 0.0
  outer loop
    vertex 3.499999999999999 5.93237915500295 0.1250000000000009
    vertex 3.499999999999999 5.18237915500295 1.7763568394002505e-15
    vertex 3.499999999999999 5.18237915500295 0.1250000000000009
  endloop
endfacet
facet normal -1.0 0.0 0.0
  outer loop
    vertex 3.499999999999999 5.18237915500295 1.7763568394002505e-15
    vertex 3.499999999999999 5.93237915500295 0.1250000000000009
    vertex 3.499999999999999 5.93237915500295 1.7763568394002505e-15
  endloop
endfacet
facet normal 0.0 -1.0 0.0
  outer loop
    vertex 3.499999999999999 5.93237915500295 0.1250000000000009
    vertex 2.25 5.93237915500295 1.7763568394002505e-15
    vertex 3.499999999999999 5.93237915500295 1.7763568394002505e-15
  endloop
endfacet
facet normal 0.0 -1.0 0.0
  outer loop
    vertex 2.25 5.93237915500295 1.7763568394002505e-15
    vertex 3.499999999999999 5.93237915500295 0.1250000000000009
    vertex 2.25 5.93237915500295 0.1250000000000009
  endloop
endfacet
facet normal 0.0 -1.0 0.0
  outer loop
    vertex 7.499999999999989 5.93237915500295 0.2500000000000009
    vertex 7.249999999999989 5.93237915500295 4.440892098500626e-16
    vertex 7.499999999999989 5.93237915500295 4.440892098500626e-16
  endloop
endfacet
facet normal 0.0 -1.0 0.0
  outer loop
    vertex 7.249999999999989 5.93237915500295 4.440892098500626e-16
    vertex 7.499999999999989 5.93237915500295 0.2500000000000009
    vertex 7.249999999999989 5.93237915500295 0.2500000000000009
  endloop
endfacet
facet normal -4.949601100496059e-17 1.0128350400089163e-16 -1.0
  outer loop
    vertex 7.499999999999989 6.182379155002948 4.440892098500626e-16
    vertex 0.0 5.93237915500295 8.881784197001252e-16
    vertex 0.0 6.182379155002948 8.881784197001252e-16
  endloop
endfacet
facet normal -4.949601100496059e-17 1.0128350400089163e-16 -1.0
  outer loop
    vertex 0.0 5.93237915500295 8.881784197001252e-16
    vertex 7.499999999999989 6.182379155002948 4.440892098500626e-16
    vertex 0.24999999999999734 5.93237915500295 1.3322676295501878e-15
  endloop
endfacet
facet normal -4.949601100496059e-17 1.0128350400089163e-16 -1.0
  outer loop
    vertex 0.24999999999999734 5.93237915500295 1.3322676295501878e-15
    vertex 7.499999999999989 6.182379155002948 4.440892098500626e-16
    vertex 0.5000000000000044 5.93237915500295 1.3322676295501878e-15
  endloop
endfacet
facet normal -4.949601100496059e-17 1.0128350400089163e-16 -1.0
  outer loop
    vertex 0.24999999999999734 5.93237915500295 1.3322676295501878e-15
    vertex 0.5000000000000044 5.93237915500295 1.3322676295501878e-15
    vertex 0.24999999999999734 3.9323791550029523 8.881784197001252e-16
  endloop
endfacet
facet normal -4.949601100496059e-17 1.0128350400089163e-16 -1.0
  outer loop
    vertex 0.5000000000000044 5.93237915500295 1.3322676295501878e-15
    vertex 7.499999999999989 6.182379155002948 4.440892098500626e-16
    vertex 1.7499999999999973 5.93237915500295 1.3322676295501878e-15
  endloop
endfacet
facet normal -4.949601100496059e-17 1.0128350400089163e-16 -1.0
  outer loop
    vertex 1.7499999999999973 5.93237915500295 1.3322676295501878e-15
    vertex 7.499999999999989 6.182379155002948 4.440892098500626e-16
    vertex 2.25 5.93237915500295 1.7763568394002505e-15
  endloop
endfacet
facet normal -4.949601100496059e-17 1.0128350400089163e-16 -1.0
  outer loop
    vertex 1.7499999999999973 5.93237915500295 1.3322676295501878e-15
    vertex 2.25 5.93237915500295 1.7763568394002505e-15
    vertex 1.7499999999999973 5.18237915500295 1.3322676295501878e-15
  endloop
endfacet
facet normal -4.949601100496059e-17 1.0128350400089163e-16 -1.0
  outer loop
    vertex 1.7499999999999973 5.18237915500295 1.3322676295501878e-15
    vertex 2.25 5.93237915500295 1.7763568394002505e-15
    vertex 1.7499999999999973 4.682379155002952 0.0
  endloop
endfacet
facet normal -4.949601100496059e-17 1.0128350400089163e-16 -1.0
  outer loop
    vertex 1.7499999999999973 4.682379155002952 0.0
    vertex 2.25 5.93237915500295 1.7763568394002505e-15
    vertex 1.7499999999999973 3.9323791550029523 0.0
  endloop
endfacet
facet normal -4.949601100496059e-17 1.0128350400089163e-16 -1.0
  outer loop
    vertex 2.25 5.93237915500295 1.7763568394002505e-15
    vertex 7.499999999999989 6.182379155002948 4.440892098500626e-16
    vertex 3.499999999999999 5.93237915500295 1.7763568394002505e-15
  endloop
endfacet
facet normal -4.949601100496059e-17 1.0128350400089163e-16 -1.0
  outer loop
    vertex 3.499999999999999 5.93237915500295 1.7763568394002505e-15
    vertex 7.499999999999989 6.182379155002948 4.440892098500626e-16
    vertex 3.9999999999999987 5.93237915500295 1.7763568394002505e-15
  endloop
endfacet
facet normal -4.949601100496059e-17 1.0128350400089163e-16 -1.0
  outer loop
    vertex 3.499999999999999 5.93237915500295 1.7763568394002505e-15
    vertex 3.9999999999999987 5.93237915500295 1.7763568394002505e-15
    vertex 3.499999999999999 5.18237915500295 1.7763568394002505e-15
  endloop
endfacet
facet normal -4.949601100496059e-17 1.0128350400089163e-16 -1.0
  outer loop
    vertex 3.499999999999999 5.18237915500295 1.7763568394002505e-15
    vertex 3.9999999999999987 5.93237915500295 1.7763568394002505e-15
    vertex 3.499999999999999 4.682379155002952 1.3322676295501878e-15
  endloop
endfacet
facet normal -4.949601100496059e-17 1.0128350400089163e-16 -1.0
  outer loop
    vertex 3.499999999999999 4.682379155002952 1.3322676295501878e-15
    vertex 3.9999999999999987 5.93237915500295 1.7763568394002505e-15
    vertex 3.499999999999999 3.9323791550029523 1.3322676295501878e-15
  endloop
endfacet
facet normal -4.949601100496059e-17 1.0128350400089163e-16 -1.0
  outer loop
    vertex 3.9999999999999987 5.93237915500295 1.7763568394002505e-15
    vertex 7.499999999999989 6.182379155002948 4.440892098500626e-16
    vertex 5.249999999999995 5.93237915500295 1.7763568394002505e-15
  endloop
endfacet
facet normal -4.949601100496059e-17 1.0128350400089163e-16 -1.0
  outer loop
    vertex 5.249999999999995 5.93237915500295 1.7763568394002505e-15
    vertex 7.499999999999989 6.182379155002948 4.440892098500626e-16
    vertex 5.749999999999998 5.93237915500295 4.440892098500626e-16
  endloop
endfacet
facet normal -4.949601100496059e-17 1.0128350400089163e-16 -1.0
  outer loop
    vertex 5.249999999999995 5.93237915500295 1.7763568394002505e-15
    vertex 5.749999999999998 5.93237915500295 4.440892098500626e-16
    vertex 5.249999999999995 5.18237915500295 1.7763568394002505e-15
  endloop
endfacet
facet normal -4.949601100496059e-17 1.0128350400089163e-16 -1.0
  outer loop
    vertex 5.249999999999995 5.18237915500295 1.7763568394002505e-15
    vertex 5.749999999999998 5.93237915500295 4.440892098500626e-16
    vertex 5.249999999999995 4.682379155002952 1.7763568394002505e-15
  endloop
endfacet
facet normal -4.949601100496059e-17 1.0128350400089163e-16 -1.0
  outer loop
    vertex 5.249999999999995 4.682379155002952 1.7763568394002505e-15
    vertex 5.749999999999998 5.93237915500295 4.440892098500626e-16
    vertex 5.249999999999995 3.9323791550029523 1.7763568394002505e-15
  endloop
endfacet
facet normal -4.949601100496059e-17 1.0128350400089163e-16 -1.0
  outer loop
    vertex 5.749999999999998 5.93237915500295 4.440892098500626e-16
    vertex 7.499999999999989 6.182379155002948 4.440892098500626e-16
    vertex 6.999999999999989 5.93237915500295 4.440892098500626e-16
  endloop
endfacet
facet normal -4.949601100496059e-17 1.0128350400089163e-16 -1.0
  outer loop
    vertex 6.999999999999989 5.93237915500295 4.440892098500626e-16
    vertex 7.499999999999989 6.182379155002948 4.440892098500626e-16
    vertex 7.249999999999989 5.93237915500295 4.440892098500626e-16
  endloop
endfacet
facet normal -4.949601100496059e-17 1.0128350400089163e-16 -1.0
  outer loop
    vertex 6.999999999999989 5.93237915500295 4.440892098500626e-16
    vertex 7.249999999999989 5.93237915500295 4.440892098500626e-16
    vertex 6.999999999999989 5.18237915500295 4.440892098500626e-16
  endloop
endfacet
facet normal -4.949601100496059e-17 1.0128350400089163e-16 -1.0
  outer loop
    vertex 6.999999999999989 5.18237915500295 4.440892098500626e-16
    vertex 7.249999999999989 5.93237915500295 4.440892098500626e-16
    vertex 6.999999999999989 4.682379155002952 4.440892098500626e-16
  endloop
endfacet
facet normal -4.949601100496059e-17 1.0128350400089163e-16 -1.0
  outer loop
    vertex 6.999999999999989 4.682379155002952 4.440892098500626e-16
    vertex 7.249999999999989 5.93237915500295 4.440892098500626e-16
    vertex 6.999999999999989 3.9323791550029523 4.440892098500626e-16
  endloop
endfacet
facet normal -4.949601100496059e-17 1.0128350400089163e-16 -1.0
  outer loop
    vertex 7.249999999999989 5.93237915500295 4.440892098500626e-16
    vertex 7.499999999999989 6.182379155002948 4.440892098500626e-16
    vertex 7.499999999999989 5.93237915500295 4.440892098500626e-16
  endloop
endfacet
facet normal -4.949601100496059e-17 1.0128350400089163e-16 -1.0
  outer loop
    vertex 0.24999999999999734 3.9323791550029523 8.881784197001252e-16
    vertex 0.0 3.6823791550029505 4.440892098500626e-16
    vertex 0.0 3.9323791550029505 4.440892098500626e-16
  endloop
endfacet
facet normal -4.949601100496059e-17 1.0128350400089163e-16 -1.0
  outer loop
    vertex 0.0 3.6823791550029505 4.440892098500626e-16
    vertex 0.24999999999999734 3.9323791550029523 8.881784197001252e-16
    vertex 7.499999999999989 3.6823791550029505 4.440892098500626e-16
  endloop
endfacet
facet normal -4.949601100496059e-17 1.0128350400089163e-16 -1.0
  outer loop
    vertex 7.499999999999989 3.6823791550029505 4.440892098500626e-16
    vertex 0.24999999999999734 3.9323791550029523 8.881784197001252e-16
    vertex 0.5000000000000044 3.9323791550029523 0.0
  endloop
endfacet
facet normal -4.949601100496059e-17 1.0128350400089163e-16 -1.0
  outer loop
    vertex 0.5000000000000044 3.9323791550029523 0.0
    vertex 0.24999999999999734 3.9323791550029523 8.881784197001252e-16
    vertex 0.5000000000000044 5.93237915500295 1.3322676295501878e-15
  endloop
endfacet
facet normal -4.949601100496059e-17 1.0128350400089163e-16 -1.0
  outer loop
    vertex 0.5000000000000044 3.9323791550029523 0.0
    vertex 0.5000000000000044 5.93237915500295 1.3322676295501878e-15
    vertex 0.5000000000000044 5.18237915500295 1.3322676295501878e-15
  endloop
endfacet
facet normal -4.949601100496059e-17 1.0128350400089163e-16 -1.0
  outer loop
    vertex 0.5000000000000044 3.9323791550029523 0.0
    vertex 0.5000000000000044 5.18237915500295 1.3322676295501878e-15
    vertex 0.5000000000000044 4.682379155002952 0.0
  endloop
endfacet
facet normal -4.949601100496059e-17 1.0128350400089163e-16 -1.0
  outer loop
    vertex 7.499999999999989 3.6823791550029505 4.440892098500626e-16
    vertex 0.5000000000000044 3.9323791550029523 0.0
    vertex 1.7499999999999973 3.9323791550029523 0.0
  endloop
endfacet
facet normal -4.949601100496059e-17 1.0128350400089163e-16 -1.0
  outer loop
    vertex 7.499999999999989 3.6823791550029505 4.440892098500626e-16
    vertex 1.7499999999999973 3.9323791550029523 0.0
    vertex 2.25 3.9323791550029523 1.3322676295501878e-15
  endloop
endfacet
facet normal -4.949601100496059e-17 1.0128350400089163e-16 -1.0
  outer loop
    vertex 2.25 3.9323791550029523 1.3322676295501878e-15
    vertex 1.7499999999999973 3.9323791550029523 0.0
    vertex 2.25 5.93237915500295 1.7763568394002505e-15
  endloop
endfacet
facet normal -4.949601100496059e-17 1.0128350400089163e-16 -1.0
  outer loop
    vertex 2.25 3.9323791550029523 1.3322676295501878e-15
    vertex 2.25 5.93237915500295 1.7763568394002505e-15
    vertex 2.25 5.18237915500295 1.7763568394002505e-15
  endloop
endfacet
facet normal -4.949601100496059e-17 1.0128350400089163e-16 -1.0
  outer loop
    vertex 2.25 3.9323791550029523 1.3322676295501878e-15
    vertex 2.25 5.18237915500295 1.7763568394002505e-15
    vertex 2.25 4.682379155002952 1.3322676295501878e-15
  endloop
endfacet
facet normal -4.949601100496059e-17 1.0128350400089163e-16 -1.0
  outer loop
    vertex 7.499999999999989 3.6823791550029505 4.440892098500626e-16
    vertex 2.25 3.9323791550029523 1.3322676295501878e-15
    vertex 3.499999999999999 3.9323791550029523 1.3322676295501878e-15
  endloop
endfacet
facet normal -4.949601100496059e-17 1.0128350400089163e-16 -1.0
  outer loop
    vertex 7.499999999999989 3.6823791550029505 4.440892098500626e-16
    vertex 3.499999999999999 3.9323791550029523 1.3322676295501878e-15
    vertex 3.9999999999999987 3.9323791550029523 1.7763568394002505e-15
  endloop
endfacet
facet normal -4.949601100496059e-17 1.0128350400089163e-16 -1.0
  outer loop
    vertex 3.9999999999999987 3.9323791550029523 1.7763568394002505e-15
    vertex 3.499999999999999 3.9323791550029523 1.3322676295501878e-15
    vertex 3.9999999999999987 5.93237915500295 1.7763568394002505e-15
  endloop
endfacet
facet normal -4.949601100496059e-17 1.0128350400089163e-16 -1.0
  outer loop
    vertex 3.9999999999999987 3.9323791550029523 1.7763568394002505e-15
    vertex 3.9999999999999987 5.93237915500295 1.7763568394002505e-15
    vertex 3.9999999999999987 5.18237915500295 1.7763568394002505e-15
  endloop
endfacet
facet normal -4.949601100496059e-17 1.0128350400089163e-16 -1.0
  outer loop
    vertex 3.9999999999999987 3.9323791550029523 1.7763568394002505e-15
    vertex 3.9999999999999987 5.18237915500295 1.7763568394002505e-15
    vertex 3.9999999999999987 4.682379155002952 1.7763568394002505e-15
  endloop
endfacet
facet normal -4.949601100496059e-17 1.0128350400089163e-16 -1.0
  outer loop
    vertex 7.499999999999989 3.6823791550029505 4.440892098500626e-16
    vertex 3.9999999999999987 3.9323791550029523 1.7763568394002505e-15
    vertex 5.249999999999995 3.9323791550029523 1.7763568394002505e-15
  endloop
endfacet
facet normal -4.949601100496059e-17 1.0128350400089163e-16 -1.0
  outer loop
    vertex 7.499999999999989 3.6823791550029505 4.440892098500626e-16
    vertex 5.249999999999995 3.9323791550029523 1.7763568394002505e-15
    vertex 5.749999999999998 3.9323791550029523 4.440892098500626e-16
  endloop
endfacet
facet normal -4.949601100496059e-17 1.0128350400089163e-16 -1.0
  outer loop
    vertex 5.749999999999998 3.9323791550029523 4.440892098500626e-16
    vertex 5.249999999999995 3.9323791550029523 1.7763568394002505e-15
    vertex 5.749999999999998 5.93237915500295 4.440892098500626e-16
  endloop
endfacet
facet normal -4.949601100496059e-17 1.0128350400089163e-16 -1.0
  outer loop
    vertex 5.749999999999998 3.9323791550029523 4.440892098500626e-16
    vertex 5.749999999999998 5.93237915500295 4.440892098500626e-16
    vertex 5.749999999999998 5.18237915500295 4.440892098500626e-16
  endloop
endfacet
facet normal -4.949601100496059e-17 1.0128350400089163e-16 -1.0
  outer loop
    vertex 5.749999999999998 3.9323791550029523 4.440892098500626e-16
    vertex 5.749999999999998 5.18237915500295 4.440892098500626e-16
    vertex 5.749999999999998 4.682379155002952 4.440892098500626e-16
  endloop
endfacet
facet normal -4.949601100496059e-17 1.0128350400089163e-16 -1.0
  outer loop
    vertex 7.499999999999989 3.6823791550029505 4.440892098500626e-16
    vertex 5.749999999999998 3.9323791550029523 4.440892098500626e-16
    vertex 6.999999999999989 3.9323791550029523 4.440892098500626e-16
  endloop
endfacet
facet normal -4.949601100496059e-17 1.0128350400089163e-16 -1.0
  outer loop
    vertex 7.499999999999989 3.6823791550029505 4.440892098500626e-16
    vertex 6.999999999999989 3.9323791550029523 4.440892098500626e-16
    vertex 7.249999999999989 3.9323791550029523 4.440892098500626e-16
  endloop
endfacet
facet normal -4.949601100496059e-17 1.0128350400089163e-16 -1.0
  outer loop
    vertex 7.249999999999989 3.9323791550029523 4.440892098500626e-16
    vertex 6.999999999999989 3.9323791550029523 4.440892098500626e-16
    vertex 7.249999999999989 5.93237915500295 4.440892098500626e-16
  endloop
endfacet
facet normal -4.949601100496059e-17 1.0128350400089163e-16 -1.0
  outer loop
    vertex 7.499999999999989 3.6823791550029505 4.440892098500626e-16
    vertex 7.249999999999989 3.9323791550029523 4.440892098500626e-16
    vertex 7.499999999999989 3.9323791550029505 4.440892098500626e-16
  endloop
endfacet
facet normal -4.949601100496059e-17 1.0128350400089163e-16 -1.0
  outer loop
    vertex 6.999999999999989 5.18237915500295 4.440892098500626e-16
    vertex 5.749999999999998 4.682379155002952 4.440892098500626e-16
    vertex 5.749999999999998 5.18237915500295 4.440892098500626e-16
  endloop
endfacet
facet normal -4.949601100496059e-17 1.0128350400089163e-16 -1.0
  outer loop
    vertex 5.749999999999998 4.682379155002952 4.440892098500626e-16
    vertex 6.999999999999989 5.18237915500295 4.440892098500626e-16
    vertex 6.999999999999989 4.682379155002952 4.440892098500626e-16
  endloop
endfacet
facet normal -4.949601100496059e-17 1.0128350400089163e-16 -1.0
  outer loop
    vertex 5.249999999999995 5.18237915500295 1.7763568394002505e-15
    vertex 3.9999999999999987 4.682379155002952 1.7763568394002505e-15
    vertex 3.9999999999999987 5.18237915500295 1.7763568394002505e-15
  endloop
endfacet
facet normal -4.949601100496059e-17 1.0128350400089163e-16 -1.0
  outer loop
    vertex 3.9999999999999987 4.682379155002952 1.7763568394002505e-15
    vertex 5.249999999999995 5.18237915500295 1.7763568394002505e-15
    vertex 5.249999999999995 4.682379155002952 1.7763568394002505e-15
  endloop
endfacet
facet normal -4.949601100496059e-17 1.0128350400089163e-16 -1.0
  outer loop
    vertex 3.499999999999999 5.18237915500295 1.7763568394002505e-15
    vertex 2.25 4.682379155002952 1.3322676295501878e-15
    vertex 2.25 5.18237915500295 1.7763568394002505e-15
  endloop
endfacet
facet normal -4.949601100496059e-17 1.0128350400089163e-16 -1.0
  outer loop
    vertex 2.25 4.682379155002952 1.3322676295501878e-15
    vertex 3.499999999999999 5.18237915500295 1.7763568394002505e-15
    vertex 3.499999999999999 4.682379155002952 1.3322676295501878e-15
  endloop
endfacet
facet normal -4.949601100496059e-17 1.0128350400089163e-16 -1.0
  outer loop
    vertex 1.7499999999999973 5.18237915500295 1.3322676295501878e-15
    vertex 0.5000000000000044 4.682379155002952 0.0
    vertex 0.5000000000000044 5.18237915500295 1.3322676295501878e-15
  endloop
endfacet
facet normal -4.949601100496059e-17 1.0128350400089163e-16 -1.0
  outer loop
    vertex 0.5000000000000044 4.682379155002952 0.0
    vertex 1.7499999999999973 5.18237915500295 1.3322676295501878e-15
    vertex 1.7499999999999973 4.682379155002952 0.0
  endloop
endfacet
facet normal 3.3306690738754696e-16 -0.0 1.0
  outer loop
    vertex 0.37500000000000444 5.05737915500295 0.1250000000000014
    vertex 0.5000000000000044 5.18237915500295 0.1250000000000009
    vertex 0.37500000000000444 6.057379155002948 0.1250000000000014
  endloop
endfacet
facet normal 3.3306690738754696e-16 -0.0 1.0
  outer loop
    vertex 0.5000000000000044 5.18237915500295 0.1250000000000009
    vertex 0.37500000000000444 5.05737915500295 0.1250000000000014
    vertex 1.8750000000000044 5.05737915500295 0.1250000000000009
  endloop
endfacet
facet normal 3.3306690738754696e-16 -0.0 1.0
  outer loop
    vertex 0.5000000000000044 5.18237915500295 0.1250000000000009
    vertex 1.8750000000000044 5.05737915500295 0.1250000000000009
    vertex 1.7499999999999973 5.18237915500295 0.1250000000000009
  endloop
endfacet
facet normal 3.3306690738754696e-16 -0.0 1.0
  outer loop
    vertex 1.7499999999999973 5.18237915500295 0.1250000000000009
    vertex 1.8750000000000044 5.05737915500295 0.1250000000000009
    vertex 1.7499999999999973 5.93237915500295 0.1250000000000009
  endloop
endfacet
facet normal 3.3306690738754696e-16 -0.0 1.0
  outer loop
    vertex 0.37500000000000444 6.057379155002948 0.1250000000000014
    vertex 0.5000000000000044 5.93237915500295 0.1250000000000009
    vertex 1.8750000000000044 6.057379155002948 0.1250000000000009
  endloop
endfacet
facet normal 3.3306690738754696e-16 -0.0 1.0
  outer loop
    vertex 0.5000000000000044 5.93237915500295 0.1250000000000009
    vertex 0.37500000000000444 6.057379155002948 0.1250000000000014
    vertex 0.5000000000000044 5.18237915500295 0.1250000000000009
  endloop
endfacet
facet normal 3.3306690738754696e-16 -0.0 1.0
  outer loop
    vertex 1.8750000000000044 6.057379155002948 0.1250000000000009
    vertex 0.5000000000000044 5.93237915500295 0.1250000000000009
    vertex 1.7499999999999973 5.93237915500295 0.1250000000000009
  endloop
endfacet
facet normal 3.3306690738754696e-16 -0.0 1.0
  outer loop
    vertex 1.8750000000000044 6.057379155002948 0.1250000000000009
    vertex 1.7499999999999973 5.93237915500295 0.1250000000000009
    vertex 1.8750000000000044 5.05737915500295 0.1250000000000009
  endloop
endfacet
facet normal -1.0 0.0 0.0
  outer loop
    vertex 6.999999999999989 4.682379155002952 0.1250000000000009
    vertex 6.999999999999989 3.9323791550029523 4.440892098500626e-16
    vertex 6.999999999999989 3.9323791550029523 0.1250000000000009
  endloop
endfacet
facet normal -1.0 0.0 0.0
  outer loop
    vertex 6.999999999999989 3.9323791550029523 4.440892098500626e-16
    vertex 6.999999999999989 4.682379155002952 0.1250000000000009
    vertex 6.999999999999989 4.682379155002952 4.440892098500626e-16
  endloop
endfacet
facet normal -1.0 0.0 0.0
  outer loop
    vertex 5.374999999999995 6.057379155002948 0.2500000000000009
    vertex 5.374999999999995 5.05737915500295 0.1250000000000009
    vertex 5.374999999999995 5.05737915500295 0.2500000000000009
  endloop
endfacet
facet normal -1.0 0.0 0.0
  outer loop
    vertex 5.374999999999995 5.05737915500295 0.1250000000000009
    vertex 5.374999999999995 6.057379155002948 0.2500000000000009
    vertex 5.374999999999995 6.057379155002948 0.1250000000000009
  endloop
endfacet
facet normal 0.0 1.0 0.0
  outer loop
    vertex 3.9999999999999987 3.9323791550029523 0.1250000000000009
    vertex 5.249999999999995 3.9323791550029523 1.7763568394002505e-15
    vertex 3.9999999999999987 3.9323791550029523 1.7763568394002505e-15
  endloop
endfacet
facet normal 0.0 1.0 0.0
  outer loop
    vertex 5.249999999999995 3.9323791550029523 1.7763568394002505e-15
    vertex 3.9999999999999987 3.9323791550029523 0.1250000000000009
    vertex 5.249999999999995 3.9323791550029523 0.1250000000000009
  endloop
endfacet
facet normal 0.0 -1.0 0.0
  outer loop
    vertex 0.24999999999999734 5.93237915500295 1.3322676295501878e-15
    vertex 0.0 5.93237915500295 0.2500000000000009
    vertex 0.0 5.93237915500295 8.881784197001252e-16
  endloop
endfacet
facet normal 0.0 -1.0 0.0
  outer loop
    vertex 0.0 5.93237915500295 0.2500000000000009
    vertex 0.24999999999999734 5.93237915500295 1.3322676295501878e-15
    vertex 0.24999999999999734 5.93237915500295 0.2500000000000009
  endloop
endfacet
facet normal 0.0 -1.0 0.0
  outer loop
    vertex 3.624999999999999 6.057379155002948 0.2500000000000009
    vertex 2.125000000000001 6.057379155002948 0.1250000000000009
    vertex 3.624999999999999 6.057379155002948 0.1250000000000009
  endloop
endfacet
facet normal 0.0 -1.0 0.0
  outer loop
    vertex 2.125000000000001 6.057379155002948 0.1250000000000009
    vertex 3.624999999999999 6.057379155002948 0.2500000000000009
    vertex 2.125000000000001 6.057379155002948 0.2500000000000009
  endloop
endfacet
facet normal -0.0 -0.0 1.0
  outer loop
    vertex 2.125000000000001 3.8073791550029505 0.1250000000000009
    vertex 2.25 3.9323791550029523 0.1250000000000009
    vertex 2.125000000000001 4.80737915500295 0.1250000000000009
  endloop
endfacet
facet normal -0.0 -0.0 1.0
  outer loop
    vertex 2.25 3.9323791550029523 0.1250000000000009
    vertex 2.125000000000001 3.8073791550029505 0.1250000000000009
    vertex 3.624999999999999 3.8073791550029505 0.1250000000000009
  endloop
endfacet
facet normal -0.0 -0.0 1.0
  outer loop
    vertex 2.25 3.9323791550029523 0.1250000000000009
    vertex 3.624999999999999 3.8073791550029505 0.1250000000000009
    vertex 3.499999999999999 3.9323791550029523 0.1250000000000009
  endloop
endfacet
facet normal -0.0 -0.0 1.0
  outer loop
    vertex 3.499999999999999 3.9323791550029523 0.1250000000000009
    vertex 3.624999999999999 3.8073791550029505 0.1250000000000009
    vertex 3.499999999999999 4.682379155002952 0.1250000000000009
  endloop
endfacet
facet normal -0.0 -0.0 1.0
  outer loop
    vertex 2.125000000000001 4.80737915500295 0.1250000000000009
    vertex 2.25 4.682379155002952 0.1250000000000009
    vertex 3.624999999999999 4.80737915500295 0.1250000000000009
  endloop
endfacet
facet normal -0.0 -0.0 1.0
  outer loop
    vertex 2.25 4.682379155002952 0.1250000000000009
    vertex 2.125000000000001 4.80737915500295 0.1250000000000009
    vertex 2.25 3.9323791550029523 0.1250000000000009
  endloop
endfacet
facet normal -0.0 -0.0 1.0
  outer loop
    vertex 3.624999999999999 4.80737915500295 0.1250000000000009
    vertex 2.25 4.682379155002952 0.1250000000000009
    vertex 3.499999999999999 4.682379155002952 0.1250000000000009
  endloop
endfacet
facet normal -0.0 -0.0 1.0
  outer loop
    vertex 3.624999999999999 4.80737915500295 0.1250000000000009
    vertex 3.499999999999999 4.682379155002952 0.1250000000000009
    vertex 3.624999999999999 3.8073791550029505 0.1250000000000009
  endloop
endfacet
facet normal 0.0 -1.0 0.0
  outer loop
    vertex 7.499999999999989 3.6823791550029505 0.2500000000000009
    vertex 0.0 3.6823791550029505 4.440892098500626e-16
    vertex 7.499999999999989 3.6823791550029505 4.440892098500626e-16
  endloop
endfacet
facet normal 0.0 -1.0 0.0
  outer loop
    vertex 0.0 3.6823791550029505 4.440892098500626e-16
    vertex 7.499999999999989 3.6823791550029505 0.2500000000000009
    vertex 0.0 3.6823791550029505 0.2500000000000009
  endloop
endfacet
facet normal -0.0 -0.0 1.0
  outer loop
    vertex 3.8749999999999996 3.8073791550029505 0.1250000000000009
    vertex 3.9999999999999987 3.9323791550029523 0.1250000000000009
    vertex 3.8749999999999996 4.80737915500295 0.1250000000000009
  endloop
endfacet
facet normal -0.0 -0.0 1.0
  outer loop
    vertex 3.9999999999999987 3.9323791550029523 0.1250000000000009
    vertex 3.8749999999999996 3.8073791550029505 0.1250000000000009
    vertex 5.374999999999995 3.8073791550029505 0.1250000000000009
  endloop
endfacet
facet normal -0.0 -0.0 1.0
  outer loop
    vertex 3.9999999999999987 3.9323791550029523 0.1250000000000009
    vertex 5.374999999999995 3.8073791550029505 0.1250000000000009
    vertex 5.249999999999995 3.9323791550029523 0.1250000000000009
  endloop
endfacet
facet normal -0.0 -0.0 1.0
  outer loop
    vertex 5.249999999999995 3.9323791550029523 0.1250000000000009
    vertex 5.374999999999995 3.8073791550029505 0.1250000000000009
    vertex 5.249999999999995 4.682379155002952 0.1250000000000009
  endloop
endfacet
facet normal -0.0 -0.0 1.0
  outer loop
    vertex 3.8749999999999996 4.80737915500295 0.1250000000000009
    vertex 3.9999999999999987 4.682379155002952 0.1250000000000009
    vertex 5.374999999999995 4.80737915500295 0.1250000000000009
  endloop
endfacet
facet normal -0.0 -0.0 1.0
  outer loop
    vertex 3.9999999999999987 4.682379155002952 0.1250000000000009
    vertex 3.8749999999999996 4.80737915500295 0.1250000000000009
    vertex 3.9999999999999987 3.9323791550029523 0.1250000000000009
  endloop
endfacet
facet normal -0.0 -0.0 1.0
  outer loop
    vertex 5.374999999999995 4.80737915500295 0.1250000000000009
    vertex 3.9999999999999987 4.682379155002952 0.1250000000000009
    vertex 5.249999999999995 4.682379155002952 0.1250000000000009
  endloop
endfacet
facet normal -0.0 -0.0 1.0
  outer loop
    vertex 5.374999999999995 4.80737915500295 0.1250000000000009
    vertex 5.249999999999995 4.682379155002952 0.1250000000000009
    vertex 5.374999999999995 3.8073791550029505 0.1250000000000009
  endloop
endfacet
facet normal 1.0 0.0 0.0
  outer loop
    vertex 3.8749999999999996 6.057379155002948 0.1250000000000009
    vertex 3.8749999999999996 5.05737915500295 0.2500000000000009
    vertex 3.8749999999999996 5.05737915500295 0.1250000000000009
  endloop
endfacet
facet normal 1.0 0.0 0.0
  outer loop
    vertex 3.8749999999999996 5.05737915500295 0.2500000000000009
    vertex 3.8749999999999996 6.057379155002948 0.1250000000000009
    vertex 3.8749999999999996 6.057379155002948 0.2500000000000009
  endloop
endfacet
facet normal 1.0 0.0 0.0
  outer loop
    vertex 0.5000000000000044 5.93237915500295 1.3322676295501878e-15
    vertex 0.5000000000000044 5.18237915500295 0.1250000000000009
    vertex 0.5000000000000044 5.18237915500295 1.3322676295501878e-15
  endloop
endfacet
facet normal 1.0 0.0 0.0
  outer loop
    vertex 0.5000000000000044 5.18237915500295 0.1250000000000009
    vertex 0.5000000000000044 5.93237915500295 1.3322676295501878e-15
    vertex 0.5000000000000044 5.93237915500295 0.1250000000000009
  endloop
endfacet
facet normal -1.0 0.0 0.0
  outer loop
    vertex 1.7499999999999973 4.682379155002952 0.1250000000000009
    vertex 1.7499999999999973 3.9323791550029523 0.0
    vertex 1.7499999999999973 3.9323791550029523 0.1250000000000009
  endloop
endfacet
facet normal -1.0 0.0 0.0
  outer loop
    vertex 1.7499999999999973 3.9323791550029523 0.0
    vertex 1.7499999999999973 4.682379155002952 0.1250000000000009
    vertex 1.7499999999999973 4.682379155002952 0.0
  endloop
endfacet
facet normal 1.0 0.0 0.0
  outer loop
    vertex 2.25 4.682379155002952 1.3322676295501878e-15
    vertex 2.25 3.9323791550029523 0.1250000000000009
    vertex 2.25 3.9323791550029523 1.3322676295501878e-15
  endloop
endfacet
facet normal 1.0 0.0 0.0
  outer loop
    vertex 2.25 3.9323791550029523 0.1250000000000009
    vertex 2.25 4.682379155002952 1.3322676295501878e-15
    vertex 2.25 4.682379155002952 0.1250000000000009
  endloop
endfacet
facet normal -1.0 0.0 0.0
  outer loop
    vertex 0.0 3.9323791550029505 0.2500000000000009
    vertex 0.0 3.6823791550029505 4.440892098500626e-16
    vertex 0.0 3.6823791550029505 0.2500000000000009
  endloop
endfacet
facet normal -1.0 0.0 0.0
  outer loop
    vertex 0.0 3.6823791550029505 4.440892098500626e-16
    vertex 0.0 3.9323791550029505 0.2500000000000009
    vertex 0.0 3.9323791550029505 4.440892098500626e-16
  endloop
endfacet
facet normal 0.0 1.0 0.0
  outer loop
    vertex 5.749999999999998 5.18237915500295 0.1250000000000009
    vertex 6.999999999999989 5.18237915500295 4.440892098500626e-16
    vertex 5.749999999999998 5.18237915500295 4.440892098500626e-16
  endloop
endfacet
facet normal 0.0 1.0 0.0
  outer loop
    vertex 6.999999999999989 5.18237915500295 4.440892098500626e-16
    vertex 5.749999999999998 5.18237915500295 0.1250000000000009
    vertex 6.999999999999989 5.18237915500295 0.1250000000000009
  endloop
endfacet
facet normal -1.0 0.0 0.0
  outer loop
    vertex 3.624999999999999 6.057379155002948 0.2500000000000009
    vertex 3.624999999999999 5.05737915500295 0.1250000000000009
    vertex 3.624999999999999 5.05737915500295 0.2500000000000009
  endloop
endfacet
facet normal -1.0 0.0 0.0
  outer loop
    vertex 3.624999999999999 5.05737915500295 0.1250000000000009
    vertex 3.624999999999999 6.057379155002948 0.2500000000000009
    vertex 3.624999999999999 6.057379155002948 0.1250000000000009
  endloop
endfacet
facet normal 0.0 1.0 0.0
  outer loop
    vertex 0.5000000000000044 5.18237915500295 0.1250000000000009
    vertex 1.7499999999999973 5.18237915500295 1.3322676295501878e-15
    vertex 0.5000000000000044 5.18237915500295 1.3322676295501878e-15
  endloop
endfacet
facet normal 0.0 1.0 0.0
  outer loop
    vertex 1.7499999999999973 5.18237915500295 1.3322676295501878e-15
    vertex 0.5000000000000044 5.18237915500295 0.1250000000000009
    vertex 1.7499999999999973 5.18237915500295 0.1250000000000009
  endloop
endfacet
facet normal -3.552713678800542e-15 1.0 3.5527136788004946e-15
  outer loop
    vertex 0.0 3.9323791550029505 0.2500000000000009
    vertex 0.24999999999999734 3.9323791550029523 8.881784197001252e-16
    vertex 0.0 3.9323791550029505 4.440892098500626e-16
  endloop
endfacet
facet normal -3.552713678800542e-15 1.0 3.5527136788004946e-15
  outer loop
    vertex 0.24999999999999734 3.9323791550029523 8.881784197001252e-16
    vertex 0.0 3.9323791550029505 0.2500000000000009
    vertex 0.24999999999999734 3.9323791550029505 0.2500000000000009
  endloop
endfacet
facet normal 0.0 -1.0 0.0
  outer loop
    vertex 5.249999999999995 5.93237915500295 0.1250000000000009
    vertex 3.9999999999999987 5.93237915500295 1.7763568394002505e-15
    vertex 5.249999999999995 5.93237915500295 1.7763568394002505e-15
  endloop
endfacet
facet normal 0.0 -1.0 0.0
  outer loop
    vertex 3.9999999999999987 5.93237915500295 1.7763568394002505e-15
    vertex 5.249999999999995 5.93237915500295 0.1250000000000009
    vertex 3.9999999999999987 5.93237915500295 0.1250000000000009
  endloop
endfacet
facet normal 0.0 1.0 0.0
  outer loop
    vertex 2.25 5.18237915500295 0.1250000000000009
    vertex 3.499999999999999 5.18237915500295 1.7763568394002505e-15
    vertex 2.25 5.18237915500295 1.7763568394002505e-15
  endloop
endfacet
facet normal 0.0 1.0 0.0
  outer loop
    vertex 3.499999999999999 5.18237915500295 1.7763568394002505e-15
    vertex 2.25 5.18237915500295 0.1250000000000009
    vertex 3.499999999999999 5.18237915500295 0.1250000000000009
  endloop
endfacet
facet normal 0.0 -1.0 0.0
  outer loop
    vertex 5.249999999999995 4.682379155002952 0.1250000000000009
    vertex 3.9999999999999987 4.682379155002952 1.7763568394002505e-15
    vertex 5.249999999999995 4.682379155002952 1.7763568394002505e-15
  endloop
endfacet
facet normal 0.0 -1.0 0.0
  outer loop
    vertex 3.9999999999999987 4.682379155002952 1.7763568394002505e-15
    vertex 5.249999999999995 4.682379155002952 0.1250000000000009
    vertex 3.9999999999999987 4.682379155002952 0.1250000000000009
  endloop
endfacet
facet normal 0.0 1.0 0.0
  outer loop
    vertex 0.5000000000000044 3.9323791550029523 0.1250000000000009
    vertex 1.7499999999999973 3.9323791550029523 0.0
    vertex 0.5000000000000044 3.9323791550029523 0.0
  endloop
endfacet
facet normal 0.0 1.0 0.0
  outer loop
    vertex 1.7499999999999973 3.9323791550029523 0.0
    vertex 0.5000000000000044 3.9323791550029523 0.1250000000000009
    vertex 1.7499999999999973 3.9323791550029523 0.1250000000000009
  endloop
endfacet
facet normal -0.0 -0.0 1.0
  outer loop
    vertex 0.0 3.6823791550029505 0.2500000000000009
    vertex 0.37500000000000444 3.8073791550029505 0.25000000000000094
    vertex 0.0 3.9323791550029505 0.2500000000000009
  endloop
endfacet
facet normal -0.0 -0.0 1.0
  outer loop
    vertex 0.37500000000000444 3.8073791550029505 0.25000000000000094
    vertex 0.0 3.6823791550029505 0.2500000000000009
    vertex 7.499999999999989 3.6823791550029505 0.2500000000000009
  endloop
endfacet
facet normal -0.0 -0.0 1.0
  outer loop
    vertex 0.0 3.9323791550029505 0.2500000000000009
    vertex 0.37500000000000444 3.8073791550029505 0.25000000000000094
    vertex 0.24999999999999734 3.9323791550029505 0.2500000000000009
  endloop
endfacet
facet normal -0.0 -0.0 1.0
  outer loop
    vertex 0.24999999999999734 3.9323791550029505 0.2500000000000009
    vertex 0.37500000000000444 3.8073791550029505 0.25000000000000094
    vertex 0.24999999999999734 5.93237915500295 0.2500000000000009
  endloop
endfacet
facet normal -0.0 -0.0 1.0
  outer loop
    vertex 0.37500000000000444 3.8073791550029505 0.25000000000000094
    vertex 7.499999999999989 3.6823791550029505 0.2500000000000009
    vertex 1.8750000000000044 3.8073791550029505 0.25000000000000094
  endloop
endfacet
facet normal -0.0 -0.0 1.0
  outer loop
    vertex 1.8750000000000044 3.8073791550029505 0.25000000000000094
    vertex 7.499999999999989 3.6823791550029505 0.2500000000000009
    vertex 2.125000000000001 3.8073791550029505 0.2500000000000011
  endloop
endfacet
facet normal -0.0 -0.0 1.0
  outer loop
    vertex 1.8750000000000044 3.8073791550029505 0.25000000000000094
    vertex 2.125000000000001 3.8073791550029505 0.2500000000000011
    vertex 1.8750000000000044 4.80737915500295 0.25000000000000094
  endloop
endfacet
facet normal -0.0 -0.0 1.0
  outer loop
    vertex 1.8750000000000044 4.80737915500295 0.25000000000000094
    vertex 2.125000000000001 3.8073791550029505 0.2500000000000011
    vertex 1.8750000000000044 5.05737915500295 0.25
  endloop
endfacet
facet normal -0.0 -0.0 1.0
  outer loop
    vertex 1.8750000000000044 5.05737915500295 0.25
    vertex 2.125000000000001 3.8073791550029505 0.2500000000000011
    vertex 1.8750000000000044 6.057379155002948 0.25
  endloop
endfacet
facet normal -0.0 -0.0 1.0
  outer loop
    vertex 2.125000000000001 3.8073791550029505 0.2500000000000011
    vertex 7.499999999999989 3.6823791550029505 0.2500000000000009
    vertex 3.624999999999999 3.8073791550029505 0.2500000000000011
  endloop
endfacet
facet normal -0.0 -0.0 1.0
  outer loop
    vertex 3.624999999999999 3.8073791550029505 0.2500000000000011
    vertex 7.499999999999989 3.6823791550029505 0.2500000000000009
    vertex 3.8749999999999996 3.8073791550029505 0.2500000000000009
  endloop
endfacet
facet normal -0.0 -0.0 1.0
  outer loop
    vertex 3.624999999999999 3.8073791550029505 0.2500000000000011
    vertex 3.8749999999999996 3.8073791550029505 0.2500000000000009
    vertex 3.624999999999999 4.80737915500295 0.2500000000000011
  endloop
endfacet
facet normal -0.0 -0.0 1.0
  outer loop
    vertex 3.624999999999999 4.80737915500295 0.2500000000000011
    vertex 3.8749999999999996 3.8073791550029505 0.2500000000000009
    vertex 3.624999999999999 5.05737915500295 0.2500000000000009
  endloop
endfacet
facet normal -0.0 -0.0 1.0
  outer loop
    vertex 3.624999999999999 5.05737915500295 0.2500000000000009
    vertex 3.8749999999999996 3.8073791550029505 0.2500000000000009
    vertex 3.624999999999999 6.057379155002948 0.2500000000000009
  endloop
endfacet
facet normal -0.0 -0.0 1.0
  outer loop
    vertex 3.8749999999999996 3.8073791550029505 0.2500000000000009
    vertex 7.499999999999989 3.6823791550029505 0.2500000000000009
    vertex 5.374999999999995 3.8073791550029505 0.2500000000000009
  endloop
endfacet
facet normal -0.0 -0.0 1.0
  outer loop
    vertex 5.374999999999995 3.8073791550029505 0.2500000000000009
    vertex 7.499999999999989 3.6823791550029505 0.2500000000000009
    vertex 5.625000000000002 3.8073791550029505 0.25000000000000083
  endloop
endfacet
facet normal -0.0 -0.0 1.0
  outer loop
    vertex 5.374999999999995 3.8073791550029505 0.2500000000000009
    vertex 5.625000000000002 3.8073791550029505 0.25000000000000083
    vertex 5.374999999999995 4.80737915500295 0.2500000000000009
  endloop
endfacet
facet normal -0.0 -0.0 1.0
  outer loop
    vertex 5.374999999999995 4.80737915500295 0.2500000000000009
    vertex 5.625000000000002 3.8073791550029505 0.25000000000000083
    vertex 5.374999999999995 5.05737915500295 0.2500000000000009
  endloop
endfacet
facet normal -0.0 -0.0 1.0
  outer loop
    vertex 5.374999999999995 5.05737915500295 0.2500000000000009
    vertex 5.625000000000002 3.8073791550029505 0.25000000000000083
    vertex 5.374999999999995 6.057379155002948 0.2500000000000009
  endloop
endfacet
facet normal -0.0 -0.0 1.0
  outer loop
    vertex 5.625000000000002 3.8073791550029505 0.25000000000000083
    vertex 7.499999999999989 3.6823791550029505 0.2500000000000009
    vertex 7.124999999999989 3.8073791550029505 0.2500000000000009
  endloop
endfacet
facet normal -0.0 -0.0 1.0
  outer loop
    vertex 7.124999999999989 3.8073791550029505 0.2500000000000009
    vertex 7.499999999999989 3.6823791550029505 0.2500000000000009
    vertex 7.249999999999989 3.9323791550029505 0.2500000000000009
  endloop
endfacet
facet normal -0.0 -0.0 1.0
  outer loop
    vertex 7.124999999999989 3.8073791550029505 0.2500000000000009
    vertex 7.249999999999989 3.9323791550029505 0.2500000000000009
    vertex 7.124999999999989 4.80737915500295 0.2500000000000009
  endloop
endfacet
facet normal -0.0 -0.0 1.0
  outer loop
    vertex 7.124999999999989 4.80737915500295 0.2500000000000009
    vertex 7.249999999999989 3.9323791550029505 0.2500000000000009
    vertex 7.124999999999989 5.05737915500295 0.2500000000000009
  endloop
endfacet
facet normal -0.0 -0.0 1.0
  outer loop
    vertex 7.124999999999989 5.05737915500295 0.2500000000000009
    vertex 7.249999999999989 3.9323791550029505 0.2500000000000009
    vertex 7.124999999999989 6.057379155002948 0.2500000000000009
  endloop
endfacet
facet normal -0.0 -0.0 1.0
  outer loop
    vertex 7.249999999999989 3.9323791550029505 0.2500000000000009
    vertex 7.499999999999989 3.6823791550029505 0.2500000000000009
    vertex 7.499999999999989 3.9323791550029505 0.2500000000000009
  endloop
endfacet
facet normal -0.0 -0.0 1.0
  outer loop
    vertex 0.24999999999999734 5.93237915500295 0.2500000000000009
    vertex 0.0 6.182379155002948 0.2500000000000009
    vertex 0.0 5.93237915500295 0.2500000000000009
  endloop
endfacet
facet normal -0.0 -0.0 1.0
  outer loop
    vertex 0.0 6.182379155002948 0.2500000000000009
    vertex 0.24999999999999734 5.93237915500295 0.2500000000000009
    vertex 0.37500000000000444 6.057379155002948 0.2500000000000005
  endloop
endfacet
facet normal -0.0 -0.0 1.0
  outer loop
    vertex 0.0 6.182379155002948 0.2500000000000009
    vertex 0.37500000000000444 6.057379155002948 0.2500000000000005
    vertex 7.499999999999989 6.182379155002948 0.2500000000000009
  endloop
endfacet
facet normal -0.0 -0.0 1.0
  outer loop
    vertex 0.37500000000000444 6.057379155002948 0.2500000000000005
    vertex 0.24999999999999734 5.93237915500295 0.2500000000000009
    vertex 0.37500000000000444 3.8073791550029505 0.25000000000000094
  endloop
endfacet
facet normal -0.0 -0.0 1.0
  outer loop
    vertex 0.37500000000000444 6.057379155002948 0.2500000000000005
    vertex 0.37500000000000444 3.8073791550029505 0.25000000000000094
    vertex 0.37500000000000444 4.80737915500295 0.25000000000000094
  endloop
endfacet
facet normal -0.0 -0.0 1.0
  outer loop
    vertex 0.37500000000000444 6.057379155002948 0.2500000000000005
    vertex 0.37500000000000444 4.80737915500295 0.25000000000000094
    vertex 0.37500000000000444 5.05737915500295 0.2500000000000005
  endloop
endfacet
facet normal -0.0 -0.0 1.0
  outer loop
    vertex 7.499999999999989 6.182379155002948 0.2500000000000009
    vertex 0.37500000000000444 6.057379155002948 0.2500000000000005
    vertex 1.8750000000000044 6.057379155002948 0.25
  endloop
endfacet
facet normal -0.0 -0.0 1.0
  outer loop
    vertex 7.499999999999989 6.182379155002948 0.2500000000000009
    vertex 1.8750000000000044 6.057379155002948 0.25
    vertex 2.125000000000001 6.057379155002948 0.2500000000000009
  endloop
endfacet
facet normal -0.0 -0.0 1.0
  outer loop
    vertex 2.125000000000001 6.057379155002948 0.2500000000000009
    vertex 1.8750000000000044 6.057379155002948 0.25
    vertex 2.125000000000001 3.8073791550029505 0.2500000000000011
  endloop
endfacet
facet normal -0.0 -0.0 1.0
  outer loop
    vertex 2.125000000000001 6.057379155002948 0.2500000000000009
    vertex 2.125000000000001 3.8073791550029505 0.2500000000000011
    vertex 2.125000000000001 4.80737915500295 0.2500000000000011
  endloop
endfacet
facet normal -0.0 -0.0 1.0
  outer loop
    vertex 2.125000000000001 6.057379155002948 0.2500000000000009
    vertex 2.125000000000001 4.80737915500295 0.2500000000000011
    vertex 2.125000000000001 5.05737915500295 0.2500000000000009
  endloop
endfacet
facet normal -0.0 -0.0 1.0
  outer loop
    vertex 7.499999999999989 6.182379155002948 0.2500000000000009
    vertex 2.125000000000001 6.057379155002948 0.2500000000000009
    vertex 3.624999999999999 6.057379155002948 0.2500000000000009
  endloop
endfacet
facet normal -0.0 -0.0 1.0
  outer loop
    vertex 7.499999999999989 6.182379155002948 0.2500000000000009
    vertex 3.624999999999999 6.057379155002948 0.2500000000000009
    vertex 3.8749999999999996 6.057379155002948 0.2500000000000009
  endloop
endfacet
facet normal -0.0 -0.0 1.0
  outer loop
    vertex 3.8749999999999996 6.057379155002948 0.2500000000000009
    vertex 3.624999999999999 6.057379155002948 0.2500000000000009
    vertex 3.8749999999999996 3.8073791550029505 0.2500000000000009
  endloop
endfacet
facet normal -0.0 -0.0 1.0
  outer loop
    vertex 3.8749999999999996 6.057379155002948 0.2500000000000009
    vertex 3.8749999999999996 3.8073791550029505 0.2500000000000009
    vertex 3.8749999999999996 4.80737915500295 0.2500000000000009
  endloop
endfacet
facet normal -0.0 -0.0 1.0
  outer loop
    vertex 3.8749999999999996 6.057379155002948 0.2500000000000009
    vertex 3.8749999999999996 4.80737915500295 0.2500000000000009
    vertex 3.8749999999999996 5.05737915500295 0.2500000000000009
  endloop
endfacet
facet normal -0.0 -0.0 1.0
  outer loop
    vertex 7.499999999999989 6.182379155002948 0.2500000000000009
    vertex 3.8749999999999996 6.057379155002948 0.2500000000000009
    vertex 5.374999999999995 6.057379155002948 0.2500000000000009
  endloop
endfacet
facet normal -0.0 -0.0 1.0
  outer loop
    vertex 7.499999999999989 6.182379155002948 0.2500000000000009
    vertex 5.374999999999995 6.057379155002948 0.2500000000000009
    vertex 5.625000000000002 6.057379155002948 0.2500000000000009
  endloop
endfacet
facet normal -0.0 -0.0 1.0
  outer loop
    vertex 5.625000000000002 6.057379155002948 0.2500000000000009
    vertex 5.374999999999995 6.057379155002948 0.2500000000000009
    vertex 5.625000000000002 3.8073791550029505 0.25000000000000083
  endloop
endfacet
facet normal -0.0 -0.0 1.0
  outer loop
    vertex 5.625000000000002 6.057379155002948 0.2500000000000009
    vertex 5.625000000000002 3.8073791550029505 0.25000000000000083
    vertex 5.625000000000002 4.80737915500295 0.2500000000000009
  endloop
endfacet
facet normal -0.0 -0.0 1.0
  outer loop
    vertex 5.625000000000002 6.057379155002948 0.2500000000000009
    vertex 5.625000000000002 4.80737915500295 0.2500000000000009
    vertex 5.625000000000002 5.05737915500295 0.2500000000000009
  endloop
endfacet
facet normal -0.0 -0.0 1.0
  outer loop
    vertex 7.499999999999989 6.182379155002948 0.2500000000000009
    vertex 5.625000000000002 6.057379155002948 0.2500000000000009
    vertex 7.124999999999989 6.057379155002948 0.2500000000000009
  endloop
endfacet
facet normal -0.0 -0.0 1.0
  outer loop
    vertex 7.499999999999989 6.182379155002948 0.2500000000000009
    vertex 7.124999999999989 6.057379155002948 0.2500000000000009
    vertex 7.249999999999989 5.93237915500295 0.2500000000000009
  endloop
endfacet
facet normal -0.0 -0.0 1.0
  outer loop
    vertex 7.249999999999989 5.93237915500295 0.2500000000000009
    vertex 7.124999999999989 6.057379155002948 0.2500000000000009
    vertex 7.249999999999989 3.9323791550029505 0.2500000000000009
  endloop
endfacet
facet normal -0.0 -0.0 1.0
  outer loop
    vertex 7.499999999999989 6.182379155002948 0.2500000000000009
    vertex 7.249999999999989 5.93237915500295 0.2500000000000009
    vertex 7.499999999999989 5.93237915500295 0.2500000000000009
  endloop
endfacet
facet normal -0.0 -0.0 1.0
  outer loop
    vertex 7.124999999999989 4.80737915500295 0.2500000000000009
    vertex 5.625000000000002 5.05737915500295 0.2500000000000009
    vertex 5.625000000000002 4.80737915500295 0.2500000000000009
  endloop
endfacet
facet normal -0.0 -0.0 1.0
  outer loop
    vertex 5.625000000000002 5.05737915500295 0.2500000000000009
    vertex 7.124999999999989 4.80737915500295 0.2500000000000009
    vertex 7.124999999999989 5.05737915500295 0.2500000000000009
  endloop
endfacet
facet normal -0.0 -0.0 1.0
  outer loop
    vertex 5.374999999999995 4.80737915500295 0.2500000000000009
    vertex 3.8749999999999996 5.05737915500295 0.2500000000000009
    vertex 3.8749999999999996 4.80737915500295 0.2500000000000009
  endloop
endfacet
facet normal -0.0 -0.0 1.0
  outer loop
    vertex 3.8749999999999996 5.05737915500295 0.2500000000000009
    vertex 5.374999999999995 4.80737915500295 0.2500000000000009
    vertex 5.374999999999995 5.05737915500295 0.2500000000000009
  endloop
endfacet
facet normal -0.0 -0.0 1.0
  outer loop
    vertex 3.624999999999999 4.80737915500295 0.2500000000000011
    vertex 2.125000000000001 5.05737915500295 0.2500000000000009
    vertex 2.125000000000001 4.80737915500295 0.2500000000000011
  endloop
endfacet
facet normal -0.0 -0.0 1.0
  outer loop
    vertex 2.125000000000001 5.05737915500295 0.2500000000000009
    vertex 3.624999999999999 4.80737915500295 0.2500000000000011
    vertex 3.624999999999999 5.05737915500295 0.2500000000000009
  endloop
endfacet
facet normal -0.0 -0.0 1.0
  outer loop
    vertex 1.8750000000000044 4.80737915500295 0.25000000000000094
    vertex 0.37500000000000444 5.05737915500295 0.2500000000000005
    vertex 0.37500000000000444 4.80737915500295 0.25000000000000094
  endloop
endfacet
facet normal -0.0 -0.0 1.0
  outer loop
    vertex 0.37500000000000444 5.05737915500295 0.2500000000000005
    vertex 1.8750000000000044 4.80737915500295 0.25000000000000094
    vertex 1.8750000000000044 5.05737915500295 0.25
  endloop
endfacet
facet normal 1.0 0.0 0.0
  outer loop
    vertex 7.499999999999989 3.9323791550029505 4.440892098500626e-16
    vertex 7.499999999999989 3.6823791550029505 0.2500000000000009
    vertex 7.499999999999989 3.6823791550029505 4.440892098500626e-16
  endloop
endfacet
facet normal 1.0 0.0 0.0
  outer loop
    vertex 7.499999999999989 3.6823791550029505 0.2500000000000009
    vertex 7.499999999999989 3.9323791550029505 4.440892098500626e-16
    vertex 7.499999999999989 3.9323791550029505 0.2500000000000009
  endloop
endfacet
facet normal 3.552713678800501e-15 1.0 3.5527136788004946e-15
  outer loop
    vertex 7.249999999999989 3.9323791550029505 0.2500000000000009
    vertex 7.499999999999989 3.9323791550029505 4.440892098500626e-16
    vertex 7.249999999999989 3.9323791550029523 4.440892098500626e-16
  endloop
endfacet
facet normal 3.552713678800501e-15 1.0 3.5527136788004946e-15
  outer loop
    vertex 7.499999999999989 3.9323791550029505 4.440892098500626e-16
    vertex 7.249999999999989 3.9323791550029505 0.2500000000000009
    vertex 7.499999999999989 3.9323791550029505 0.2500000000000009
  endloop
endfacet
facet normal 1.0 0.0 0.0
  outer loop
    vertex 0.5000000000000044 4.682379155002952 0.0
    vertex 0.5000000000000044 3.9323791550029523 0.1250000000000009
    vertex 0.5000000000000044 3.9323791550029523 0.0
  endloop
endfacet
facet normal 1.0 0.0 0.0
  outer loop
    vertex 0.5000000000000044 3.9323791550029523 0.1250000000000009
    vertex 0.5000000000000044 4.682379155002952 0.0
    vertex 0.5000000000000044 4.682379155002952 0.1250000000000009
  endloop
endfacet
facet normal 0.0 -1.0 0.0
  outer loop
    vertex 7.124999999999989 6.057379155002948 0.2500000000000009
    vertex 5.625000000000002 6.057379155002948 0.1250000000000009
    vertex 7.124999999999989 6.057379155002948 0.1250000000000009
  endloop
endfacet
facet normal 0.0 -1.0 0.0
  outer loop
    vertex 5.625000000000002 6.057379155002948 0.1250000000000009
    vertex 7.124999999999989 6.057379155002948 0.2500000000000009
    vertex 5.625000000000002 6.057379155002948 0.2500000000000009
  endloop
endfacet
facet normal -1.0 0.0 0.0
  outer loop
    vertex 1.7499999999999973 5.93237915500295 0.1250000000000009
    vertex 1.7499999999999973 5.18237915500295 1.3322676295501878e-15
    vertex 1.7499999999999973 5.18237915500295 0.1250000000000009
  endloop
endfacet
facet normal -1.0 0.0 0.0
  outer loop
    vertex 1.7499999999999973 5.18237915500295 1.3322676295501878e-15
    vertex 1.7499999999999973 5.93237915500295 0.1250000000000009
    vertex 1.7499999999999973 5.93237915500295 1.3322676295501878e-15
  endloop
endfacet
facet normal -1.0 0.0 0.0
  outer loop
    vertex 5.249999999999995 4.682379155002952 0.1250000000000009
    vertex 5.249999999999995 3.9323791550029523 1.7763568394002505e-15
    vertex 5.249999999999995 3.9323791550029523 0.1250000000000009
  endloop
endfacet
facet normal -1.0 0.0 0.0
  outer loop
    vertex 5.249999999999995 3.9323791550029523 1.7763568394002505e-15
    vertex 5.249999999999995 4.682379155002952 0.1250000000000009
    vertex 5.249999999999995 4.682379155002952 1.7763568394002505e-15
  endloop
endfacet
facet normal 0.0 -1.0 0.0
  outer loop
    vertex 1.7499999999999973 5.93237915500295 0.1250000000000009
    vertex 0.5000000000000044 5.93237915500295 1.3322676295501878e-15
    vertex 1.7499999999999973 5.93237915500295 1.3322676295501878e-15
  endloop
endfacet
facet normal 0.0 -1.0 0.0
  outer loop
    vertex 0.5000000000000044 5.93237915500295 1.3322676295501878e-15
    vertex 1.7499999999999973 5.93237915500295 0.1250000000000009
    vertex 0.5000000000000044 5.93237915500295 0.1250000000000009
  endloop
endfacet
facet normal 0.0 1.0 0.0
  outer loop
    vertex 3.9999999999999987 5.18237915500295 0.1250000000000009
    vertex 5.249999999999995 5.18237915500295 1.7763568394002505e-15
    vertex 3.9999999999999987 5.18237915500295 1.7763568394002505e-15
  endloop
endfacet
facet normal 0.0 1.0 0.0
  outer loop
    vertex 5.249999999999995 5.18237915500295 1.7763568394002505e-15
    vertex 3.9999999999999987 5.18237915500295 0.1250000000000009
    vertex 5.249999999999995 5.18237915500295 0.1250000000000009
  endloop
endfacet
facet normal -1.0 0.0 0.0
  outer loop
    vertex 3.499999999999999 4.682379155002952 0.1250000000000009
    vertex 3.499999999999999 3.9323791550029523 1.3322676295501878e-15
    vertex 3.499999999999999 3.9323791550029523 0.1250000000000009
  endloop
endfacet
facet normal -1.0 0.0 0.0
  outer loop
    vertex 3.499999999999999 3.9323791550029523 1.3322676295501878e-15
    vertex 3.499999999999999 4.682379155002952 0.1250000000000009
    vertex 3.499999999999999 4.682379155002952 1.3322676295501878e-15
  endloop
endfacet
facet normal -9.251858538543048e-18 -1.3877787807814463e-17 1.0
  outer loop
    vertex 5.625000000000002 3.8073791550029505 0.12500000000000086
    vertex 5.749999999999998 3.9323791550029523 0.1250000000000009
    vertex 5.625000000000002 4.80737915500295 0.1250000000000009
  endloop
endfacet
facet normal -9.251858538543048e-18 -1.3877787807814463e-17 1.0
  outer loop
    vertex 5.749999999999998 3.9323791550029523 0.1250000000000009
    vertex 5.625000000000002 3.8073791550029505 0.12500000000000086
    vertex 7.124999999999989 3.8073791550029505 0.1250000000000009
  endloop
endfacet
facet normal -9.251858538543048e-18 -1.3877787807814463e-17 1.0
  outer loop
    vertex 5.749999999999998 3.9323791550029523 0.1250000000000009
    vertex 7.124999999999989 3.8073791550029505 0.1250000000000009
    vertex 6.999999999999989 3.9323791550029523 0.1250000000000009
  endloop
endfacet
facet normal -9.251858538543048e-18 -1.3877787807814463e-17 1.0
  outer loop
    vertex 6.999999999999989 3.9323791550029523 0.1250000000000009
    vertex 7.124999999999989 3.8073791550029505 0.1250000000000009
    vertex 6.999999999999989 4.682379155002952 0.1250000000000009
  endloop
endfacet
facet normal -9.251858538543048e-18 -1.3877787807814463e-17 1.0
  outer loop
    vertex 5.625000000000002 4.80737915500295 0.1250000000000009
    vertex 5.749999999999998 4.682379155002952 0.1250000000000009
    vertex 7.124999999999989 4.80737915500295 0.1250000000000009
  endloop
endfacet
facet normal -9.251858538543048e-18 -1.3877787807814463e-17 1.0
  outer loop
    vertex 5.749999999999998 4.682379155002952 0.1250000000000009
    vertex 5.625000000000002 4.80737915500295 0.1250000000000009
    vertex 5.749999999999998 3.9323791550029523 0.1250000000000009
  endloop
endfacet
facet normal -9.251858538543048e-18 -1.3877787807814463e-17 1.0
  outer loop
    vertex 7.124999999999989 4.80737915500295 0.1250000000000009
    vertex 5.749999999999998 4.682379155002952 0.1250000000000009
    vertex 6.999999999999989 4.682379155002952 0.1250000000000009
  endloop
endfacet
facet normal -9.251858538543048e-18 -1.3877787807814463e-17 1.0
  outer loop
    vertex 7.124999999999989 4.80737915500295 0.1250000000000009
    vertex 6.999999999999989 4.682379155002952 0.1250000000000009
    vertex 7.124999999999989 3.8073791550029505 0.1250000000000009
  endloop
endfacet
facet normal 1.0 0.0 0.0
  outer loop
    vertex 5.749999999999998 5.93237915500295 4.440892098500626e-16
    vertex 5.749999999999998 5.18237915500295 0.1250000000000009
    vertex 5.749999999999998 5.18237915500295 4.440892098500626e-16
  endloop
endfacet
facet normal 1.0 0.0 0.0
  outer loop
    vertex 5.749999999999998 5.18237915500295 0.1250000000000009
    vertex 5.749999999999998 5.93237915500295 4.440892098500626e-16
    vertex 5.749999999999998 5.93237915500295 0.1250000000000009
  endloop
endfacet
facet normal -1.0 0.0 0.0
  outer loop
    vertex 6.999999999999989 5.93237915500295 0.1250000000000009
    vertex 6.999999999999989 5.18237915500295 4.440892098500626e-16
    vertex 6.999999999999989 5.18237915500295 0.1250000000000009
  endloop
endfacet
facet normal -1.0 0.0 0.0
  outer loop
    vertex 6.999999999999989 5.18237915500295 4.440892098500626e-16
    vertex 6.999999999999989 5.93237915500295 0.1250000000000009
    vertex 6.999999999999989 5.93237915500295 4.440892098500626e-16
  endloop
endfacet
facet normal 0.0 1.0 0.0
  outer loop
    vertex 2.25 3.9323791550029523 0.1250000000000009
    vertex 3.499999999999999 3.9323791550029523 1.3322676295501878e-15
    vertex 2.25 3.9323791550029523 1.3322676295501878e-15
  endloop
endfacet
facet normal 0.0 1.0 0.0
  outer loop
    vertex 3.499999999999999 3.9323791550029523 1.3322676295501878e-15
    vertex 2.25 3.9323791550029523 0.1250000000000009
    vertex 3.499999999999999 3.9323791550029523 0.1250000000000009
  endloop
endfacet
facet normal 1.0 0.0 0.0
  outer loop
    vertex 2.25 5.93237915500295 1.7763568394002505e-15
    vertex 2.25 5.18237915500295 0.1250000000000009
    vertex 2.25 5.18237915500295 1.7763568394002505e-15
  endloop
endfacet
facet normal 1.0 0.0 0.0
  outer loop
    vertex 2.25 5.18237915500295 0.1250000000000009
    vertex 2.25 5.93237915500295 1.7763568394002505e-15
    vertex 2.25 5.93237915500295 0.1250000000000009
  endloop
endfacet
facet normal 0.0 0.0 1.0
  outer loop
    vertex 5.625000000000002 5.05737915500295 0.1250000000000009
    vertex 5.749999999999998 5.18237915500295 0.1250000000000009
    vertex 5.625000000000002 6.057379155002948 0.1250000000000009
  endloop
endfacet
facet normal 0.0 0.0 1.0
  outer loop
    vertex 5.749999999999998 5.18237915500295 0.1250000000000009
    vertex 5.625000000000002 5.05737915500295 0.1250000000000009
    vertex 7.124999999999989 5.05737915500295 0.1250000000000009
  endloop
endfacet
facet normal 0.0 0.0 1.0
  outer loop
    vertex 5.749999999999998 5.18237915500295 0.1250000000000009
    vertex 7.124999999999989 5.05737915500295 0.1250000000000009
    vertex 6.999999999999989 5.18237915500295 0.1250000000000009
  endloop
endfacet
facet normal 0.0 0.0 1.0
  outer loop
    vertex 6.999999999999989 5.18237915500295 0.1250000000000009
    vertex 7.124999999999989 5.05737915500295 0.1250000000000009
    vertex 6.999999999999989 5.93237915500295 0.1250000000000009
  endloop
endfacet
facet normal 0.0 0.0 1.0
  outer loop
    vertex 5.625000000000002 6.057379155002948 0.1250000000000009
    vertex 5.749999999999998 5.93237915500295 0.1250000000000009
    vertex 7.124999999999989 6.057379155002948 0.1250000000000009
  endloop
endfacet
facet normal 0.0 0.0 1.0
  outer loop
    vertex 5.749999999999998 5.93237915500295 0.1250000000000009
    vertex 5.625000000000002 6.057379155002948 0.1250000000000009
    vertex 5.749999999999998 5.18237915500295 0.1250000000000009
  endloop
endfacet
facet normal 0.0 0.0 1.0
  outer loop
    vertex 7.124999999999989 6.057379155002948 0.1250000000000009
    vertex 5.749999999999998 5.93237915500295 0.1250000000000009
    vertex 6.999999999999989 5.93237915500295 0.1250000000000009
  endloop
endfacet
facet normal 0.0 0.0 1.0
  outer loop
    vertex 7.124999999999989 6.057379155002948 0.1250000000000009
    vertex 6.999999999999989 5.93237915500295 0.1250000000000009
    vertex 7.124999999999989 5.05737915500295 0.1250000000000009
  endloop
endfacet
facet normal 0.0 1.0 0.0
  outer loop
    vertex 2.125000000000001 5.05737915500295 0.2500000000000009
    vertex 3.624999999999999 5.05737915500295 0.1250000000000009
    vertex 2.125000000000001 5.05737915500295 0.1250000000000009
  endloop
endfacet
facet normal 0.0 1.0 0.0
  outer loop
    vertex 3.624999999999999 5.05737915500295 0.1250000000000009
    vertex 2.125000000000001 5.05737915500295 0.2500000000000009
    vertex 3.624999999999999 5.05737915500295 0.2500000000000009
  endloop
endfacet
facet normal 1.0 0.0 0.0
  outer loop
    vertex 7.249999999999989 3.9323791550029523 4.440892098500626e-16
    vertex 7.249999999999989 5.93237915500295 0.2500000000000009
    vertex 7.249999999999989 3.9323791550029505 0.2500000000000009
  endloop
endfacet
facet normal 1.0 0.0 0.0
  outer loop
    vertex 7.249999999999989 5.93237915500295 0.2500000000000009
    vertex 7.249999999999989 3.9323791550029523 4.440892098500626e-16
    vertex 7.249999999999989 5.93237915500295 4.440892098500626e-16
  endloop
endfacet
facet normal 0.0 1.0 0.0
  outer loop
    vertex 5.625000000000002 5.05737915500295 0.2500000000000009
    vertex 7.124999999999989 5.05737915500295 0.1250000000000009
    vertex 5.625000000000002 5.05737915500295 0.1250000000000009
  endloop
endfacet
facet normal 0.0 1.0 0.0
  outer loop
    vertex 7.124999999999989 5.05737915500295 0.1250000000000009
    vertex 5.625000000000002 5.05737915500295 0.2500000000000009
    vertex 7.124999999999989 5.05737915500295 0.2500000000000009
  endloop
endfacet
facet normal -1.0 0.0 0.0
  outer loop
    vertex 7.124999999999989 6.057379155002948 0.2500000000000009
    vertex 7.124999999999989 5.05737915500295 0.1250000000000009
    vertex 7.124999999999989 5.05737915500295 0.2500000000000009
  endloop
endfacet
facet normal -1.0 0.0 0.0
  outer loop
    vertex 7.124999999999989 5.05737915500295 0.1250000000000009
    vertex 7.124999999999989 6.057379155002948 0.2500000000000009
    vertex 7.124999999999989 6.057379155002948 0.1250000000000009
  endloop
endfacet
facet normal 0.0 0.0 1.0
  outer loop
    vertex 3.8749999999999996 5.05737915500295 0.1250000000000009
    vertex 3.9999999999999987 5.18237915500295 0.1250000000000009
    vertex 3.8749999999999996 6.057379155002948 0.1250000000000009
  endloop
endfacet
facet normal 0.0 0.0 1.0
  outer loop
    vertex 3.9999999999999987 5.18237915500295 0.1250000000000009
    vertex 3.8749999999999996 5.05737915500295 0.1250000000000009
    vertex 5.374999999999995 5.05737915500295 0.1250000000000009
  endloop
endfacet
facet normal 0.0 0.0 1.0
  outer loop
    vertex 3.9999999999999987 5.18237915500295 0.1250000000000009
    vertex 5.374999999999995 5.05737915500295 0.1250000000000009
    vertex 5.249999999999995 5.18237915500295 0.1250000000000009
  endloop
endfacet
facet normal 0.0 0.0 1.0
  outer loop
    vertex 5.249999999999995 5.18237915500295 0.1250000000000009
    vertex 5.374999999999995 5.05737915500295 0.1250000000000009
    vertex 5.249999999999995 5.93237915500295 0.1250000000000009
  endloop
endfacet
facet normal 0.0 0.0 1.0
  outer loop
    vertex 3.8749999999999996 6.057379155002948 0.1250000000000009
    vertex 3.9999999999999987 5.93237915500295 0.1250000000000009
    vertex 5.374999999999995 6.057379155002948 0.1250000000000009
  endloop
endfacet
facet normal 0.0 0.0 1.0
  outer loop
    vertex 3.9999999999999987 5.93237915500295 0.1250000000000009
    vertex 3.8749999999999996 6.057379155002948 0.1250000000000009
    vertex 3.9999999999999987 5.18237915500295 0.1250000000000009
  endloop
endfacet
facet normal 0.0 0.0 1.0
  outer loop
    vertex 5.374999999999995 6.057379155002948 0.1250000000000009
    vertex 3.9999999999999987 5.93237915500295 0.1250000000000009
    vertex 5.249999999999995 5.93237915500295 0.1250000000000009
  endloop
endfacet
facet normal 0.0 0.0 1.0
  outer loop
    vertex 5.374999999999995 6.057379155002948 0.1250000000000009
    vertex 5.249999999999995 5.93237915500295 0.1250000000000009
    vertex 5.374999999999995 5.05737915500295 0.1250000000000009
  endloop
endfacet
facet normal -1.0 0.0 0.0
  outer loop
    vertex 0.24999999999999734 5.93237915500295 0.2500000000000009
    vertex 0.24999999999999734 3.9323791550029523 8.881784197001252e-16
    vertex 0.24999999999999734 3.9323791550029505 0.2500000000000009
  endloop
endfacet
facet normal -1.0 0.0 0.0
  outer loop
    vertex 0.24999999999999734 3.9323791550029523 8.881784197001252e-16
    vertex 0.24999999999999734 5.93237915500295 0.2500000000000009
    vertex 0.24999999999999734 5.93237915500295 1.3322676295501878e-15
  endloop
endfacet
facet normal 1.0 0.0 0.0
  outer loop
    vertex 5.625000000000002 6.057379155002948 0.1250000000000009
    vertex 5.625000000000002 5.05737915500295 0.2500000000000009
    vertex 5.625000000000002 5.05737915500295 0.1250000000000009
  endloop
endfacet
facet normal 1.0 0.0 0.0
  outer loop
    vertex 5.625000000000002 5.05737915500295 0.2500000000000009
    vertex 5.625000000000002 6.057379155002948 0.1250000000000009
    vertex 5.625000000000002 6.057379155002948 0.2500000000000009
  endloop
endfacet
facet normal 0.0 -1.0 0.0
  outer loop
    vertex 1.8750000000000044 4.80737915500295 0.25000000000000094
    vertex 0.37500000000000444 4.80737915500295 0.1250000000000009
    vertex 1.8750000000000044 4.80737915500295 0.1250000000000009
  endloop
endfacet
facet normal 0.0 -1.0 0.0
  outer loop
    vertex 0.37500000000000444 4.80737915500295 0.1250000000000009
    vertex 1.8750000000000044 4.80737915500295 0.25000000000000094
    vertex 0.37500000000000444 4.80737915500295 0.25000000000000094
  endloop
endfacet
facet normal 0.0 -1.0 0.0
  outer loop
    vertex 3.624999999999999 4.80737915500295 0.2500000000000011
    vertex 2.125000000000001 4.80737915500295 0.1250000000000009
    vertex 3.624999999999999 4.80737915500295 0.1250000000000009
  endloop
endfacet
facet normal 0.0 -1.0 0.0
  outer loop
    vertex 2.125000000000001 4.80737915500295 0.1250000000000009
    vertex 3.624999999999999 4.80737915500295 0.2500000000000011
    vertex 2.125000000000001 4.80737915500295 0.2500000000000011
  endloop
endfacet
facet normal 1.0 -0.0 0.0
  outer loop
    vertex 2.125000000000001 4.80737915500295 0.1250000000000009
    vertex 2.125000000000001 3.8073791550029505 0.2500000000000011
    vertex 2.125000000000001 3.8073791550029505 0.1250000000000009
  endloop
endfacet
facet normal 1.0 -0.0 0.0
  outer loop
    vertex 2.125000000000001 3.8073791550029505 0.2500000000000011
    vertex 2.125000000000001 4.80737915500295 0.1250000000000009
    vertex 2.125000000000001 4.80737915500295 0.2500000000000011
  endloop
endfacet
facet normal 0.0 1.0 0.0
  outer loop
    vertex 3.8749999999999996 3.8073791550029505 0.2500000000000009
    vertex 5.374999999999995 3.8073791550029505 0.1250000000000009
    vertex 3.8749999999999996 3.8073791550029505 0.1250000000000009
  endloop
endfacet
facet normal 0.0 1.0 0.0
  outer loop
    vertex 5.374999999999995 3.8073791550029505 0.1250000000000009
    vertex 3.8749999999999996 3.8073791550029505 0.2500000000000009
    vertex 5.374999999999995 3.8073791550029505 0.2500000000000009
  endloop
endfacet
facet normal 1.0 -0.0 0.0
  outer loop
    vertex 5.625000000000002 4.80737915500295 0.1250000000000009
    vertex 5.625000000000002 3.8073791550029505 0.25000000000000083
    vertex 5.625000000000002 3.8073791550029505 0.12500000000000086
  endloop
endfacet
facet normal 1.0 -0.0 0.0
  outer loop
    vertex 5.625000000000002 3.8073791550029505 0.25000000000000083
    vertex 5.625000000000002 4.80737915500295 0.1250000000000009
    vertex 5.625000000000002 4.80737915500295 0.2500000000000009
  endloop
endfacet
facet normal -1.0 -0.0 -0.0
  outer loop
    vertex 3.624999999999999 4.80737915500295 0.2500000000000011
    vertex 3.624999999999999 3.8073791550029505 0.1250000000000009
    vertex 3.624999999999999 3.8073791550029505 0.2500000000000011
  endloop
endfacet
facet normal -1.0 -0.0 -0.0
  outer loop
    vertex 3.624999999999999 3.8073791550029505 0.1250000000000009
    vertex 3.624999999999999 4.80737915500295 0.2500000000000011
    vertex 3.624999999999999 4.80737915500295 0.1250000000000009
  endloop
endfacet
facet normal 0.0 -1.0 0.0
  outer loop
    vertex 7.124999999999989 4.80737915500295 0.2500000000000009
    vertex 5.625000000000002 4.80737915500295 0.1250000000000009
    vertex 7.124999999999989 4.80737915500295 0.1250000000000009
  endloop
endfacet
facet normal 0.0 -1.0 0.0
  outer loop
    vertex 5.625000000000002 4.80737915500295 0.1250000000000009
    vertex 7.124999999999989 4.80737915500295 0.2500000000000009
    vertex 5.625000000000002 4.80737915500295 0.2500000000000009
  endloop
endfacet
facet normal -1.0 -0.0 -0.0
  outer loop
    vertex 7.124999999999989 4.80737915500295 0.2500000000000009
    vertex 7.124999999999989 3.8073791550029505 0.1250000000000009
    vertex 7.124999999999989 3.8073791550029505 0.2500000000000009
  endloop
endfacet
facet normal -1.0 -0.0 -0.0
  outer loop
    vertex 7.124999999999989 3.8073791550029505 0.1250000000000009
    vertex 7.124999999999989 4.80737915500295 0.2500000000000009
    vertex 7.124999999999989 4.80737915500295 0.1250000000000009
  endloop
endfacet
facet normal 1.0 -0.0 0.0
  outer loop
    vertex 0.37500000000000444 4.80737915500295 0.1250000000000009
    vertex 0.37500000000000444 3.8073791550029505 0.25000000000000094
    vertex 0.37500000000000444 3.8073791550029505 0.1250000000000009
  endloop
endfacet
facet normal 1.0 -0.0 0.0
  outer loop
    vertex 0.37500000000000444 3.8073791550029505 0.25000000000000094
    vertex 0.37500000000000444 4.80737915500295 0.1250000000000009
    vertex 0.37500000000000444 4.80737915500295 0.25000000000000094
  endloop
endfacet
facet normal -1.0 -0.0 -0.0
  outer loop
    vertex 1.8750000000000044 4.80737915500295 0.25000000000000094
    vertex 1.8750000000000044 3.8073791550029505 0.1250000000000009
    vertex 1.8750000000000044 3.8073791550029505 0.25000000000000094
  endloop
endfacet
facet normal -1.0 -0.0 -0.0
  outer loop
    vertex 1.8750000000000044 3.8073791550029505 0.1250000000000009
    vertex 1.8750000000000044 4.80737915500295 0.25000000000000094
    vertex 1.8750000000000044 4.80737915500295 0.1250000000000009
  endloop
endfacet
facet normal -1.0 -0.0 -0.0
  outer loop
    vertex 5.374999999999995 4.80737915500295 0.2500000000000009
    vertex 5.374999999999995 3.8073791550029505 0.1250000000000009
    vertex 5.374999999999995 3.8073791550029505 0.2500000000000009
  endloop
endfacet
facet normal -1.0 -0.0 -0.0
  outer loop
    vertex 5.374999999999995 3.8073791550029505 0.1250000000000009
    vertex 5.374999999999995 4.80737915500295 0.2500000000000009
    vertex 5.374999999999995 4.80737915500295 0.1250000000000009
  endloop
endfacet
facet normal 1.0 -0.0 0.0
  outer loop
    vertex 3.8749999999999996 4.80737915500295 0.1250000000000009
    vertex 3.8749999999999996 3.8073791550029505 0.2500000000000009
    vertex 3.8749999999999996 3.8073791550029505 0.1250000000000009
  endloop
endfacet
facet normal 1.0 -0.0 0.0
  outer loop
    vertex 3.8749999999999996 3.8073791550029505 0.2500000000000009
    vertex 3.8749999999999996 4.80737915500295 0.1250000000000009
    vertex 3.8749999999999996 4.80737915500295 0.2500000000000009
  endloop
endfacet
facet normal 0.0 1.0 0.0
  outer loop
    vertex 5.625000000000002 3.8073791550029505 0.25000000000000083
    vertex 7.124999999999989 3.8073791550029505 0.1250000000000009
    vertex 5.625000000000002 3.8073791550029505 0.12500000000000086
  endloop
endfacet
facet normal 0.0 1.0 0.0
  outer loop
    vertex 7.124999999999989 3.8073791550029505 0.1250000000000009
    vertex 5.625000000000002 3.8073791550029505 0.25000000000000083
    vertex 7.124999999999989 3.8073791550029505 0.2500000000000009
  endloop
endfacet
facet normal 0.0 1.0 0.0
  outer loop
    vertex 2.125000000000001 3.8073791550029505 0.2500000000000011
    vertex 3.624999999999999 3.8073791550029505 0.1250000000000009
    vertex 2.125000000000001 3.8073791550029505 0.1250000000000009
  endloop
endfacet
facet normal 0.0 1.0 0.0
  outer loop
    vertex 3.624999999999999 3.8073791550029505 0.1250000000000009
    vertex 2.125000000000001 3.8073791550029505 0.2500000000000011
    vertex 3.624999999999999 3.8073791550029505 0.2500000000000011
  endloop
endfacet
facet normal 0.0 -1.0 0.0
  outer loop
    vertex 5.374999999999995 4.80737915500295 0.2500000000000009
    vertex 3.8749999999999996 4.80737915500295 0.1250000000000009
    vertex 5.374999999999995 4.80737915500295 0.1250000000000009
  endloop
endfacet
facet normal 0.0 -1.0 0.0
  outer loop
    vertex 3.8749999999999996 4.80737915500295 0.1250000000000009
    vertex 5.374999999999995 4.80737915500295 0.2500000000000009
    vertex 3.8749999999999996 4.80737915500295 0.2500000000000009
  endloop
endfacet
facet normal 0.0 1.0 0.0
  outer loop
    vertex 0.37500000000000444 3.8073791550029505 0.25000000000000094
    vertex 1.8750000000000044 3.8073791550029505 0.1250000000000009
    vertex 0.37500000000000444 3.8073791550029505 0.1250000000000009
  endloop
endfacet
facet normal 0.0 1.0 0.0
  outer loop
    vertex 1.8750000000000044 3.8073791550029505 0.1250000000000009
    vertex 0.37500000000000444 3.8073791550029505 0.25000000000000094
    vertex 1.8750000000000044 3.8073791550029505 0.25000000000000094
  endloop
endfacet
facet normal 1.0 -0.0 0.0
  outer loop
    vertex 0.37500000000000444 6.057379155002948 0.1250000000000014
    vertex 0.37500000000000444 5.05737915500295 0.2500000000000005
    vertex 0.37500000000000444 5.05737915500295 0.1250000000000014
  endloop
endfacet
facet normal 1.0 -0.0 0.0
  outer loop
    vertex 0.37500000000000444 5.05737915500295 0.2500000000000005
    vertex 0.37500000000000444 6.057379155002948 0.1250000000000014
    vertex 0.37500000000000444 6.057379155002948 0.2500000000000005
  endloop
endfacet
facet normal -1.0 -0.0 -0.0
  outer loop
    vertex 1.8750000000000044 6.057379155002948 0.25
    vertex 1.8750000000000044 5.05737915500295 0.1250000000000009
    vertex 1.8750000000000044 5.05737915500295 0.25
  endloop
endfacet
facet normal -1.0 -0.0 -0.0
  outer loop
    vertex 1.8750000000000044 5.05737915500295 0.1250000000000009
    vertex 1.8750000000000044 6.057379155002948 0.25
    vertex 1.8750000000000044 6.057379155002948 0.1250000000000009
  endloop
endfacet
facet normal 0.0 -1.0 0.0
  outer loop
    vertex 1.8750000000000044 6.057379155002948 0.25
    vertex 0.37500000000000444 6.057379155002948 0.1250000000000014
    vertex 1.8750000000000044 6.057379155002948 0.1250000000000009
  endloop
endfacet
facet normal 0.0 -1.0 0.0
  outer loop
    vertex 0.37500000000000444 6.057379155002948 0.1250000000000014
    vertex 1.8750000000000044 6.057379155002948 0.25
    vertex 0.37500000000000444 6.057379155002948 0.2500000000000005
  endloop
endfacet
facet normal 0.0 1.0 0.0
  outer loop
    vertex 0.37500000000000444 5.05737915500295 0.1250000000000014
    vertex 1.8750000000000044 5.05737915500295 0.25
    vertex 1.8750000000000044 5.05737915500295 0.1250000000000009
  endloop
endfacet
facet normal 0.0 1.0 0.0
  outer loop
    vertex 1.8750000000000044 5.05737915500295 0.25
    vertex 0.37500000000000444 5.05737915500295 0.1250000000000014
    vertex 0.37500000000000444 5.05737915500295 0.2500000000000005
  endloop
endfacet
endsolid Blank_Module_Frame
