solid Blank_Module_Frame
facet normal -1.0 -3.7851913097885547e-32 7.722200515670893e-16
  outer loop
    vertex 7.261048673824161 2.4900001738241597 1.0624999999999998
    vertex 7.26104867382416 0.5099998261758407 0.8124999999999987
    vertex 7.261048673824161 0.5099998261758407 1.0624999999999998
  endloop
endfacet
facet normal -1.0 -3.7851913097885547e-32 7.722200515670893e-16
  outer loop
    vertex 7.26104867382416 2.7610486738241597 1.0624999999999987
    vertex 7.26104867382416 2.7500001738241595 0.8124999999999987
    vertex 7.26104867382416 2.7500001738241595 1.062499999999999
  endloop
endfacet
facet normal -1.0 -3.7851913097885547e-32 7.722200515670893e-16
  outer loop
    vertex 7.26104867382416 0.24999982617583966 1.0624999999999978
    vertex 7.26104867382416 0.23895132617584044 0.6000000000000008
    vertex 7.26104867382416 0.2389513261758398 1.062499999999998
  endloop
endfacet
facet normal -1.0 -3.7851913097885547e-32 7.722200515670893e-16
  outer loop
    vertex 7.26104867382416 0.23895132617584044 0.6000000000000008
    vertex 7.26104867382416 0.24999982617583966 1.0624999999999978
    vertex 7.26104867382416 0.24999982617584032 0.8124999999999988
  endloop
endfacet
facet normal -1.0 -3.7851913097885547e-32 7.722200515670893e-16
  outer loop
    vertex 7.26104867382416 0.23895132617584044 0.6000000000000008
    vertex 7.26104867382416 0.24999982617584032 0.8124999999999988
    vertex 7.26104867382416 2.7610486738241597 0.6000000000000008
  endloop
endfacet
facet normal -1.0 -3.7851913097885547e-32 7.722200515670893e-16
  outer loop
    vertex 7.26104867382416 2.7610486738241597 0.6000000000000008
    vertex 7.26104867382416 0.24999982617584032 0.8124999999999988
    vertex 7.26104867382416 0.5099998261758407 0.8124999999999987
  endloop
endfacet
facet normal -1.0 -3.7851913097885547e-32 7.722200515670893e-16
  outer loop
    vertex 7.26104867382416 2.7610486738241597 0.6000000000000008
    vertex 7.26104867382416 0.5099998261758407 0.8124999999999987
    vertex 7.26104867382416 2.4900001738241597 0.8124999999999987
  endloop
endfacet
facet normal -1.0 -3.7851913097885547e-32 7.722200515670893e-16
  outer loop
    vertex 7.26104867382416 2.4900001738241597 0.8124999999999987
    vertex 7.26104867382416 0.5099998261758407 0.8124999999999987
    vertex 7.261048673824161 2.4900001738241597 1.0624999999999998
  endloop
endfacet
facet normal -1.0 -3.7851913097885547e-32 7.722200515670893e-16
  outer loop
    vertex 7.26104867382416 2.7610486738241597 0.6000000000000008
    vertex 7.26104867382416 2.4900001738241597 0.8124999999999987
    vertex 7.26104867382416 2.7500001738241595 0.8124999999999987
  endloop
endfacet
facet normal -1.0 -3.7851913097885547e-32 7.722200515670893e-16
  outer loop
    vertex 7.26104867382416 2.7610486738241597 0.6000000000000008
    vertex 7.26104867382416 2.7500001738241595 0.8124999999999987
    vertex 7.26104867382416 2.7610486738241597 1.0624999999999987
  endloop
endfacet
facet normal -1.0 1.3112632481753422e-16 3.700743415417188e-16
  outer loop
    vertex 7.01104867382416 2.7610486738241597 0.6000000000000009
    vertex 7.011048673824159 0.23895132617584125 9.95827724853911e-16
    vertex 7.01104867382416 0.23895132617584047 0.6000000000000009
  endloop
endfacet
facet normal -1.0 1.3112632481753422e-16 3.700743415417188e-16
  outer loop
    vertex 7.011048673824159 0.23895132617584125 9.95827724853911e-16
    vertex 7.01104867382416 2.7610486738241597 0.6000000000000009
    vertex 7.01104867382416 0.45580582617584037 9.95827724853911e-16
  endloop
endfacet
facet normal -1.0 1.3112632481753422e-16 3.700743415417188e-16
  outer loop
    vertex 7.01104867382416 0.45580582617584037 9.95827724853911e-16
    vertex 7.01104867382416 2.7610486738241597 0.6000000000000009
    vertex 7.01104867382416 2.5441941738241596 9.95827724853911e-16
  endloop
endfacet
facet normal -1.0 1.3112632481753422e-16 3.700743415417188e-16
  outer loop
    vertex 7.01104867382416 2.5441941738241596 9.95827724853911e-16
    vertex 7.01104867382416 2.7610486738241597 0.6000000000000009
    vertex 7.01104867382416 2.7610486738241597 9.95827724853911e-16
  endloop
endfacet
facet normal -1.0408340855858686e-16 9.112105300443204e-15 1.0
  outer loop
    vertex 0.23895132617584106 0.23895132617575907 0.6000000000000028
    vertex 0.48895132617584014 2.7610486738241597 0.5999999999999798
    vertex 0.23895132617584014 2.7610486738241597 0.5999999999999798
  endloop
endfacet
facet normal -1.0408340855858686e-16 9.112105300443204e-15 1.0
  outer loop
    vertex 0.48895132617584014 2.7610486738241597 0.5999999999999798
    vertex 0.23895132617584106 0.23895132617575907 0.6000000000000028
    vertex 0.48895132617584103 0.23895132617575907 0.6000000000000028
  endloop
endfacet
facet normal 1.0 -2.195129317750178e-17 1.0408340855858705e-16
  outer loop
    vertex 0.4889513261758404 0.23895132617575987 2.8790389542088322e-15
    vertex 0.48895132617584014 2.7610486738241597 0.5999999999999798
    vertex 0.48895132617584103 0.23895132617575907 0.6000000000000028
  endloop
endfacet
facet normal 1.0 -2.195129317750178e-17 1.0408340855858705e-16
  outer loop
    vertex 0.48895132617584014 2.7610486738241597 0.5999999999999798
    vertex 0.4889513261758404 0.23895132617575987 2.8790389542088322e-15
    vertex 0.4889513261758403 0.45580582617584026 9.039005821821775e-16
  endloop
endfacet
facet normal 1.0 -2.195129317750178e-17 1.0408340855858705e-16
  outer loop
    vertex 0.48895132617584014 2.7610486738241597 0.5999999999999798
    vertex 0.4889513261758403 0.45580582617584026 9.039005821821775e-16
    vertex 0.48895132617584103 2.5441941738241596 9.039005821821775e-16
  endloop
endfacet
facet normal 1.0 -2.195129317750178e-17 1.0408340855858705e-16
  outer loop
    vertex 0.48895132617584014 2.7610486738241597 0.5999999999999798
    vertex 0.48895132617584103 2.5441941738241596 9.039005821821775e-16
    vertex 0.48895132617584086 2.7610486738241597 9.039005821821775e-16
  endloop
endfacet
facet normal -1.2106324843460764e-16 1.2060828503624064e-15 -1.0
  outer loop
    vertex 0.20580582617584042 0.23895132617575987 2.86331679172678e-15
    vertex 0.4558058261758403 0.20580582617584026 8.881784197001252e-16
    vertex 0.2058058261758403 0.20580582617584026 8.881784197001252e-16
  endloop
endfacet
facet normal -1.2106324843460764e-16 1.2060828503624064e-15 -1.0
  outer loop
    vertex 0.4558058261758403 0.20580582617584026 8.881784197001252e-16
    vertex 0.20580582617584042 0.23895132617575987 2.86331679172678e-15
    vertex 0.4889513261758404 0.23895132617575987 2.8790389542088322e-15
  endloop
endfacet
facet normal -1.2106324843460764e-16 1.2060828503624064e-15 -1.0
  outer loop
    vertex 0.4558058261758403 0.20580582617584026 8.881784197001252e-16
    vertex 0.4889513261758404 0.23895132617575987 2.8790389542088322e-15
    vertex 7.04419417382416 0.2058058261758403 8.881784197001252e-16
  endloop
endfacet
facet normal -1.2106324843460764e-16 1.2060828503624064e-15 -1.0
  outer loop
    vertex 7.04419417382416 0.2058058261758403 8.881784197001252e-16
    vertex 0.4889513261758404 0.23895132617575987 2.8790389542088322e-15
    vertex 7.011048673824159 0.23895132617584125 9.95827724853911e-16
  endloop
endfacet
facet normal -1.2106324843460764e-16 1.2060828503624064e-15 -1.0
  outer loop
    vertex 7.04419417382416 0.2058058261758403 8.881784197001252e-16
    vertex 7.011048673824159 0.23895132617584125 9.95827724853911e-16
    vertex 7.01104867382416 0.45580582617584037 9.95827724853911e-16
  endloop
endfacet
facet normal -1.2106324843460764e-16 1.2060828503624064e-15 -1.0
  outer loop
    vertex 7.04419417382416 0.2058058261758403 8.881784197001252e-16
    vertex 7.01104867382416 0.45580582617584037 9.95827724853911e-16
    vertex 7.5 0.4558058261758403 8.881784197001252e-16
  endloop
endfacet
facet normal -1.2106324843460764e-16 1.2060828503624064e-15 -1.0
  outer loop
    vertex 7.04419417382416 0.2058058261758403 8.881784197001252e-16
    vertex 7.5 0.4558058261758403 8.881784197001252e-16
    vertex 7.04419417382416 0.0 8.881784197001252e-16
  endloop
endfacet
facet normal -1.2106324843460764e-16 1.2060828503624064e-15 -1.0
  outer loop
    vertex 7.04419417382416 0.0 8.881784197001252e-16
    vertex 7.5 0.4558058261758403 8.881784197001252e-16
    vertex 7.5 0.0 0.0
  endloop
endfacet
facet normal 1.2481139988511313e-15 1.4703943042364679e-15 -1.0
  outer loop
    vertex 0.2058058261758403 0.20580582617584026 8.881784197001252e-16
    vertex 0.4558058261758403 0.0 8.881784197001252e-16
    vertex 0.0 0.0 0.0
  endloop
endfacet
facet normal 1.2481139988511313e-15 1.4703943042364679e-15 -1.0
  outer loop
    vertex 0.4558058261758403 0.0 8.881784197001252e-16
    vertex 0.2058058261758403 0.20580582617584026 8.881784197001252e-16
    vertex 0.4558058261758403 0.20580582617584026 8.881784197001252e-16
  endloop
endfacet
facet normal 1.2481139988511313e-15 1.4703943042364679e-15 -1.0
  outer loop
    vertex 0.0 0.45580582617584026 8.881784197001252e-16
    vertex 0.20580582617584042 0.23895132617575987 2.86331679172678e-15
    vertex 0.0 0.0 0.0
  endloop
endfacet
facet normal 1.2481139988511313e-15 1.4703943042364679e-15 -1.0
  outer loop
    vertex 0.20580582617584042 0.23895132617575987 2.86331679172678e-15
    vertex 0.0 0.45580582617584026 8.881784197001252e-16
    vertex 0.4889513261758403 0.45580582617584026 9.039005821821775e-16
  endloop
endfacet
facet normal 1.2481139988511313e-15 1.4703943042364679e-15 -1.0
  outer loop
    vertex 0.0 0.0 0.0
    vertex 0.20580582617584042 0.23895132617575987 2.86331679172678e-15
    vertex 0.2058058261758403 0.20580582617584026 8.881784197001252e-16
  endloop
endfacet
facet normal 1.2481139988511313e-15 1.4703943042364679e-15 -1.0
  outer loop
    vertex 0.20580582617584042 0.23895132617575987 2.86331679172678e-15
    vertex 0.4889513261758403 0.45580582617584026 9.039005821821775e-16
    vertex 0.4889513261758404 0.23895132617575987 2.8790389542088322e-15
  endloop
endfacet
facet normal 1.2811847644785028e-15 -1.3895094808469483e-15 -1.0
  outer loop
    vertex 0.0 3.0 0.0
    vertex 0.20580582617584106 2.7941941738241596 8.881784197001252e-16
    vertex 0.0 2.5441941738241596 8.881784197001252e-16
  endloop
endfacet
facet normal 1.2811847644785028e-15 -1.3895094808469483e-15 -1.0
  outer loop
    vertex 0.20580582617584106 2.7941941738241596 8.881784197001252e-16
    vertex 0.0 3.0 0.0
    vertex 0.4558058261758411 3.0 8.333280171889435e-16
  endloop
endfacet
facet normal 1.2811847644785028e-15 -1.3895094808469483e-15 -1.0
  outer loop
    vertex 0.0 2.5441941738241596 8.881784197001252e-16
    vertex 0.20580582617584106 2.7941941738241596 8.881784197001252e-16
    vertex 0.20580582617584087 2.7610486738241597 8.881784197001252e-16
  endloop
endfacet
facet normal 1.2811847644785028e-15 -1.3895094808469483e-15 -1.0
  outer loop
    vertex 0.20580582617584106 2.7941941738241596 8.881784197001252e-16
    vertex 0.4558058261758411 3.0 8.333280171889435e-16
    vertex 0.4558058261758411 2.7941941738241596 8.881784197001252e-16
  endloop
endfacet
facet normal 1.2811847644785028e-15 -1.3895094808469483e-15 -1.0
  outer loop
    vertex 0.20580582617584087 2.7610486738241597 8.881784197001252e-16
    vertex 0.48895132617584103 2.5441941738241596 9.039005821821775e-16
    vertex 0.0 2.5441941738241596 8.881784197001252e-16
  endloop
endfacet
facet normal 1.2811847644785028e-15 -1.3895094808469483e-15 -1.0
  outer loop
    vertex 0.48895132617584103 2.5441941738241596 9.039005821821775e-16
    vertex 0.20580582617584087 2.7610486738241597 8.881784197001252e-16
    vertex 0.48895132617584086 2.7610486738241597 9.039005821821775e-16
  endloop
endfacet
facet normal 0.0 0.0 -1.0
  outer loop
    vertex 7.04419417382416 0.2058058261758403 8.881784197001252e-16
    vertex 0.4558058261758403 0.0 8.881784197001252e-16
    vertex 0.4558058261758403 0.20580582617584026 8.881784197001252e-16
  endloop
endfacet
facet normal 0.0 0.0 -1.0
  outer loop
    vertex 0.4558058261758403 0.0 8.881784197001252e-16
    vertex 7.04419417382416 0.2058058261758403 8.881784197001252e-16
    vertex 7.04419417382416 0.0 8.881784197001252e-16
  endloop
endfacet
facet normal 0.0 0.0 -1.0
  outer loop
    vertex 7.5 2.5441941738241596 8.881784197001252e-16
    vertex 7.01104867382416 0.45580582617584037 9.95827724853911e-16
    vertex 7.01104867382416 2.5441941738241596 9.95827724853911e-16
  endloop
endfacet
facet normal 0.0 0.0 -1.0
  outer loop
    vertex 7.01104867382416 0.45580582617584037 9.95827724853911e-16
    vertex 7.5 2.5441941738241596 8.881784197001252e-16
    vertex 7.5 0.4558058261758403 8.881784197001252e-16
  endloop
endfacet
facet normal 0.0 0.0 -1.0
  outer loop
    vertex 0.48895132617584103 2.5441941738241596 9.039005821821775e-16
    vertex 0.0 0.45580582617584026 8.881784197001252e-16
    vertex 0.0 2.5441941738241596 8.881784197001252e-16
  endloop
endfacet
facet normal 0.0 0.0 -1.0
  outer loop
    vertex 0.0 0.45580582617584026 8.881784197001252e-16
    vertex 0.48895132617584103 2.5441941738241596 9.039005821821775e-16
    vertex 0.4889513261758403 0.45580582617584026 9.039005821821775e-16
  endloop
endfacet
facet normal -2.498369085356017e-17 -9.689869640028865e-16 -1.0
  outer loop
    vertex 7.5 3.0 0.0
    vertex 7.04419417382416 2.7941941738241596 8.881784197001252e-16
    vertex 7.04419417382416 3.0 8.881784197001252e-16
  endloop
endfacet
facet normal -2.498369085356017e-17 -9.689869640028865e-16 -1.0
  outer loop
    vertex 0.20580582617584106 2.7941941738241596 8.881784197001252e-16
    vertex 0.48895132617584086 2.7610486738241597 9.039005821821775e-16
    vertex 0.20580582617584087 2.7610486738241597 8.881784197001252e-16
  endloop
endfacet
facet normal -2.498369085356017e-17 -9.689869640028865e-16 -1.0
  outer loop
    vertex 0.48895132617584086 2.7610486738241597 9.039005821821775e-16
    vertex 0.20580582617584106 2.7941941738241596 8.881784197001252e-16
    vertex 0.4558058261758411 2.7941941738241596 8.881784197001252e-16
  endloop
endfacet
facet normal -2.498369085356017e-17 -9.689869640028865e-16 -1.0
  outer loop
    vertex 0.48895132617584086 2.7610486738241597 9.039005821821775e-16
    vertex 0.4558058261758411 2.7941941738241596 8.881784197001252e-16
    vertex 7.04419417382416 2.7941941738241596 8.881784197001252e-16
  endloop
endfacet
facet normal -2.498369085356017e-17 -9.689869640028865e-16 -1.0
  outer loop
    vertex 0.48895132617584086 2.7610486738241597 9.039005821821775e-16
    vertex 7.04419417382416 2.7941941738241596 8.881784197001252e-16
    vertex 7.01104867382416 2.7610486738241597 9.95827724853911e-16
  endloop
endfacet
facet normal -2.498369085356017e-17 -9.689869640028865e-16 -1.0
  outer loop
    vertex 7.01104867382416 2.7610486738241597 9.95827724853911e-16
    vertex 7.04419417382416 2.7941941738241596 8.881784197001252e-16
    vertex 7.01104867382416 2.5441941738241596 9.95827724853911e-16
  endloop
endfacet
facet normal -2.498369085356017e-17 -9.689869640028865e-16 -1.0
  outer loop
    vertex 7.01104867382416 2.5441941738241596 9.95827724853911e-16
    vertex 7.04419417382416 2.7941941738241596 8.881784197001252e-16
    vertex 7.5 2.5441941738241596 8.881784197001252e-16
  endloop
endfacet
facet normal -2.498369085356017e-17 -9.689869640028865e-16 -1.0
  outer loop
    vertex 7.5 2.5441941738241596 8.881784197001252e-16
    vertex 7.04419417382416 2.7941941738241596 8.881784197001252e-16
    vertex 7.5 3.0 0.0
  endloop
endfacet
facet normal 4.162657057910089e-18 -1.3325765244448803e-16 -1.0
  outer loop
    vertex 7.04419417382416 3.0 8.881784197001252e-16
    vertex 0.4558058261758411 2.7941941738241596 8.881784197001252e-16
    vertex 0.4558058261758411 3.0 8.333280171889435e-16
  endloop
endfacet
facet normal 4.162657057910089e-18 -1.3325765244448803e-16 -1.0
  outer loop
    vertex 0.4558058261758411 2.7941941738241596 8.881784197001252e-16
    vertex 7.04419417382416 3.0 8.881784197001252e-16
    vertex 7.04419417382416 2.7941941738241596 8.881784197001252e-16
  endloop
endfacet
facet normal 0.0 -1.0 0.0
  outer loop
    vertex 0.23895132617584106 0.5099998261758403 1.0624999999999987
    vertex 0.0 0.5099998261758403 0.8124999999999987
    vertex 0.23895132617584106 0.5099998261758403 0.8124999999999987
  endloop
endfacet
facet normal 0.0 -1.0 0.0
  outer loop
    vertex 0.0 0.5099998261758403 0.8124999999999987
    vertex 0.23895132617584106 0.5099998261758403 1.0624999999999987
    vertex 0.0 0.5099998261758403 1.0624999999999987
  endloop
endfacet
facet normal 0.0 1.0 2.512157814692393e-15
  outer loop
    vertex 7.26104867382416 0.24999982617583966 1.0624999999999978
    vertex 7.5 0.24999982617584032 0.8124999999999988
    vertex 7.26104867382416 0.24999982617584032 0.8124999999999988
  endloop
endfacet
facet normal 0.0 1.0 2.512157814692393e-15
  outer loop
    vertex 7.5 0.24999982617584032 0.8124999999999988
    vertex 7.26104867382416 0.24999982617583966 1.0624999999999978
    vertex 7.5 0.24999982617583966 1.0624999999999978
  endloop
endfacet
facet normal 0.0 1.0 0.0
  outer loop
    vertex 0.0 2.4900001738241597 1.0624999999999987
    vertex 0.23895132617584106 2.4900001738241597 0.8124999999999987
    vertex 0.0 2.4900001738241597 0.8124999999999987
  endloop
endfacet
facet normal 0.0 1.0 0.0
  outer loop
    vertex 0.23895132617584106 2.4900001738241597 0.8124999999999987
    vertex 0.0 2.4900001738241597 1.0624999999999987
    vertex 0.23895132617584106 2.4900001738241597 1.0624999999999987
  endloop
endfacet
facet normal 1.0517240056700647e-16 6.6706515875218654e-15 1.0
  outer loop
    vertex 0.0 0.0 1.0625
    vertex 0.2389513261758422 0.23895132617575846 1.0624999999999993
    vertex 0.0 0.24999982617584027 1.0624999999999987
  endloop
endfacet
facet normal 1.0517240056700647e-16 6.6706515875218654e-15 1.0
  outer loop
    vertex 0.2389513261758422 0.23895132617575846 1.0624999999999993
    vertex 0.0 0.0 1.0625
    vertex 7.5 0.0 1.0625
  endloop
endfacet
facet normal 1.0517240056700647e-16 6.6706515875218654e-15 1.0
  outer loop
    vertex 0.0 0.24999982617584027 1.0624999999999987
    vertex 0.2389513261758422 0.23895132617575846 1.0624999999999993
    vertex 0.2389513261758403 0.24999982617584027 1.0624999999999987
  endloop
endfacet
facet normal 1.0517240056700647e-16 6.6706515875218654e-15 1.0
  outer loop
    vertex 0.2389513261758422 0.23895132617575846 1.0624999999999993
    vertex 7.5 0.0 1.0625
    vertex 7.26104867382416 0.2389513261758398 1.062499999999998
  endloop
endfacet
facet normal 1.0517240056700647e-16 6.6706515875218654e-15 1.0
  outer loop
    vertex 7.26104867382416 0.2389513261758398 1.062499999999998
    vertex 7.5 0.0 1.0625
    vertex 7.26104867382416 0.24999982617583966 1.0624999999999978
  endloop
endfacet
facet normal 1.0517240056700647e-16 6.6706515875218654e-15 1.0
  outer loop
    vertex 7.26104867382416 0.24999982617583966 1.0624999999999978
    vertex 7.5 0.0 1.0625
    vertex 7.5 0.24999982617583966 1.0624999999999978
  endloop
endfacet
facet normal 0.0 -1.0 0.0
  outer loop
    vertex 0.23895132617584106 2.7500001738241595 1.0624999999999987
    vertex 0.0 2.7500001738241595 0.8124999999999987
    vertex 0.23895132617584106 2.7500001738241595 0.8124999999999987
  endloop
endfacet
facet normal 0.0 -1.0 0.0
  outer loop
    vertex 0.0 2.7500001738241595 0.8124999999999987
    vertex 0.23895132617584106 2.7500001738241595 1.0624999999999987
    vertex 0.0 2.7500001738241595 1.0624999999999987
  endloop
endfacet
facet normal -1.5208532523272994e-17 -5.081207919868566e-15 1.0
  outer loop
    vertex 0.23895132617584106 2.7500001738241595 1.0624999999999987
    vertex 0.0 3.0 1.0625
    vertex 0.0 2.7500001738241595 1.0624999999999987
  endloop
endfacet
facet normal -1.5208532523272994e-17 -5.081207919868566e-15 1.0
  outer loop
    vertex 0.0 3.0 1.0625
    vertex 0.23895132617584106 2.7500001738241595 1.0624999999999987
    vertex 0.23895132617584086 2.7610486738241597 1.0624999999999987
  endloop
endfacet
facet normal -1.5208532523272994e-17 -5.081207919868566e-15 1.0
  outer loop
    vertex 7.5 2.7500001738241595 1.062499999999999
    vertex 7.26104867382416 2.7610486738241597 1.0624999999999987
    vertex 7.26104867382416 2.7500001738241595 1.062499999999999
  endloop
endfacet
facet normal -1.5208532523272994e-17 -5.081207919868566e-15 1.0
  outer loop
    vertex 0.23895132617584086 2.7610486738241597 1.0624999999999987
    vertex 7.5 3.0 1.0625
    vertex 0.0 3.0 1.0625
  endloop
endfacet
facet normal -1.5208532523272994e-17 -5.081207919868566e-15 1.0
  outer loop
    vertex 7.5 3.0 1.0625
    vertex 0.23895132617584086 2.7610486738241597 1.0624999999999987
    vertex 7.26104867382416 2.7610486738241597 1.0624999999999987
  endloop
endfacet
facet normal -1.5208532523272994e-17 -5.081207919868566e-15 1.0
  outer loop
    vertex 7.5 3.0 1.0625
    vertex 7.26104867382416 2.7610486738241597 1.0624999999999987
    vertex 7.5 2.7500001738241595 1.062499999999999
  endloop
endfacet
facet normal -0.0 -0.0 1.0
  outer loop
    vertex 0.2389513261758403 0.24999982617584027 0.8124999999999987
    vertex 0.0 0.5099998261758403 0.8124999999999987
    vertex 0.0 0.24999982617584027 0.8124999999999987
  endloop
endfacet
facet normal -0.0 -0.0 1.0
  outer loop
    vertex 0.0 0.5099998261758403 0.8124999999999987
    vertex 0.2389513261758403 0.24999982617584027 0.8124999999999987
    vertex 0.23895132617584106 0.5099998261758403 0.8124999999999987
  endloop
endfacet
facet normal -6.775938998394877e-31 -1.0 1.256078907346195e-15
  outer loop
    vertex 7.5 2.7500001738241595 0.8124999999999988
    vertex 7.26104867382416 2.7500001738241595 1.062499999999999
    vertex 7.26104867382416 2.7500001738241595 0.8124999999999987
  endloop
endfacet
facet normal -6.775938998394877e-31 -1.0 1.256078907346195e-15
  outer loop
    vertex 7.26104867382416 2.7500001738241595 1.062499999999999
    vertex 7.5 2.7500001738241595 0.8124999999999988
    vertex 7.5 2.7500001738241595 1.062499999999999
  endloop
endfacet
facet normal -0.0 -0.0 1.0
  outer loop
    vertex 0.23895132617584106 2.4900001738241597 0.8124999999999987
    vertex 0.0 2.7500001738241595 0.8124999999999987
    vertex 0.0 2.4900001738241597 0.8124999999999987
  endloop
endfacet
facet normal -0.0 -0.0 1.0
  outer loop
    vertex 0.0 2.7500001738241595 0.8124999999999987
    vertex 0.23895132617584106 2.4900001738241597 0.8124999999999987
    vertex 0.23895132617584106 2.7500001738241595 0.8124999999999987
  endloop
endfacet
facet normal 0.0 -1.0 0.0
  outer loop
    vertex 7.5 0.5099998261758407 0.8124999999999988
    vertex 7.261048673824161 0.5099998261758407 1.0624999999999998
    vertex 7.26104867382416 0.5099998261758407 0.8124999999999987
  endloop
endfacet
facet normal 0.0 -1.0 0.0
  outer loop
    vertex 7.261048673824161 0.5099998261758407 1.0624999999999998
    vertex 7.5 0.5099998261758407 0.8124999999999988
    vertex 7.500000000000001 0.5099998261758407 1.0625000000000002
  endloop
endfacet
facet normal 0.0 1.0 0.0
  outer loop
    vertex 0.0 0.24999982617584027 1.0624999999999987
    vertex 0.2389513261758403 0.24999982617584027 0.8124999999999987
    vertex 0.0 0.24999982617584027 0.8124999999999987
  endloop
endfacet
facet normal 0.0 1.0 0.0
  outer loop
    vertex 0.2389513261758403 0.24999982617584027 0.8124999999999987
    vertex 0.0 0.24999982617584027 1.0624999999999987
    vertex 0.2389513261758403 0.24999982617584027 1.0624999999999987
  endloop
endfacet
facet normal -5.394516983579378e-16 0.0 1.0
  outer loop
    vertex 7.500000000000001 0.5099998261758407 1.0625000000000002
    vertex 7.261048673824161 2.4900001738241597 1.0624999999999998
    vertex 7.261048673824161 0.5099998261758407 1.0624999999999998
  endloop
endfacet
facet normal -5.394516983579378e-16 0.0 1.0
  outer loop
    vertex 7.261048673824161 2.4900001738241597 1.0624999999999998
    vertex 7.500000000000001 0.5099998261758407 1.0625000000000002
    vertex 7.500000000000001 2.4900001738241597 1.0625000000000002
  endloop
endfacet
facet normal 0.0 0.0 1.0
  outer loop
    vertex 0.23895132617584106 0.5099998261758403 1.0624999999999987
    vertex 0.0 2.4900001738241597 1.0624999999999987
    vertex 0.0 0.5099998261758403 1.0624999999999987
  endloop
endfacet
facet normal 0.0 0.0 1.0
  outer loop
    vertex 0.0 2.4900001738241597 1.0624999999999987
    vertex 0.23895132617584106 0.5099998261758403 1.0624999999999987
    vertex 0.23895132617584106 2.4900001738241597 1.0624999999999987
  endloop
endfacet
facet normal -0.0 1.0 -0.0
  outer loop
    vertex 0.0 3.0 1.0625
    vertex 0.4558058261758411 3.0 8.333280171889435e-16
    vertex 0.0 3.0 0.0
  endloop
endfacet
facet normal -0.0 1.0 -0.0
  outer loop
    vertex 0.4558058261758411 3.0 8.333280171889435e-16
    vertex 0.0 3.0 1.0625
    vertex 7.04419417382416 3.0 8.881784197001252e-16
  endloop
endfacet
facet normal -0.0 1.0 -0.0
  outer loop
    vertex 7.04419417382416 3.0 8.881784197001252e-16
    vertex 7.5 3.0 1.0625
    vertex 7.5 3.0 0.0
  endloop
endfacet
facet normal -0.0 1.0 -0.0
  outer loop
    vertex 7.5 3.0 1.0625
    vertex 7.04419417382416 3.0 8.881784197001252e-16
    vertex 0.0 3.0 1.0625
  endloop
endfacet
facet normal -0.0 1.0 -0.0
  outer loop
    vertex 0.0 0.0 1.0625
    vertex 0.4558058261758403 0.0 8.881784197001252e-16
    vertex 0.0 0.0 0.0
  endloop
endfacet
facet normal -0.0 1.0 -0.0
  outer loop
    vertex 0.4558058261758403 0.0 8.881784197001252e-16
    vertex 0.0 0.0 1.0625
    vertex 7.04419417382416 0.0 8.881784197001252e-16
  endloop
endfacet
facet normal -0.0 1.0 -0.0
  outer loop
    vertex 7.04419417382416 0.0 8.881784197001252e-16
    vertex 7.5 0.0 1.0625
    vertex 7.5 0.0 0.0
  endloop
endfacet
facet normal -0.0 1.0 -0.0
  outer loop
    vertex 7.5 0.0 1.0625
    vertex 7.04419417382416 0.0 8.881784197001252e-16
    vertex 0.0 0.0 1.0625
  endloop
endfacet
facet normal -1.0 0.0 0.0
  outer loop
    vertex 0.0 2.4900001738241597 1.0624999999999987
    vertex 0.0 0.5099998261758403 0.8124999999999987
    vertex 0.0 0.5099998261758403 1.0624999999999987
  endloop
endfacet
facet normal -1.0 0.0 0.0
  outer loop
    vertex 0.0 3.0 1.0625
    vertex 0.0 2.7500001738241595 0.8124999999999987
    vertex 0.0 2.7500001738241595 1.0624999999999987
  endloop
endfacet
facet normal -1.0 0.0 0.0
  outer loop
    vertex 0.0 0.24999982617584027 1.0624999999999987
    vertex 0.0 0.0 0.0
    vertex 0.0 0.0 1.0625
  endloop
endfacet
facet normal -1.0 0.0 0.0
  outer loop
    vertex 0.0 0.0 0.0
    vertex 0.0 0.24999982617584027 1.0624999999999987
    vertex 0.0 0.24999982617584027 0.8124999999999987
  endloop
endfacet
facet normal -1.0 0.0 0.0
  outer loop
    vertex 0.0 0.0 0.0
    vertex 0.0 0.24999982617584027 0.8124999999999987
    vertex 0.0 0.45580582617584026 8.881784197001252e-16
  endloop
endfacet
facet normal -1.0 0.0 0.0
  outer loop
    vertex 0.0 0.45580582617584026 8.881784197001252e-16
    vertex 0.0 0.24999982617584027 0.8124999999999987
    vertex 0.0 0.5099998261758403 0.8124999999999987
  endloop
endfacet
facet normal -1.0 0.0 0.0
  outer loop
    vertex 0.0 0.45580582617584026 8.881784197001252e-16
    vertex 0.0 0.5099998261758403 0.8124999999999987
    vertex 0.0 2.5441941738241596 8.881784197001252e-16
  endloop
endfacet
facet normal -1.0 0.0 0.0
  outer loop
    vertex 0.0 2.5441941738241596 8.881784197001252e-16
    vertex 0.0 0.5099998261758403 0.8124999999999987
    vertex 0.0 2.4900001738241597 0.8124999999999987
  endloop
endfacet
facet normal -1.0 0.0 0.0
  outer loop
    vertex 0.0 2.4900001738241597 0.8124999999999987
    vertex 0.0 0.5099998261758403 0.8124999999999987
    vertex 0.0 2.4900001738241597 1.0624999999999987
  endloop
endfacet
facet normal -1.0 0.0 0.0
  outer loop
    vertex 0.0 2.5441941738241596 8.881784197001252e-16
    vertex 0.0 2.4900001738241597 0.8124999999999987
    vertex 0.0 2.7500001738241595 0.8124999999999987
  endloop
endfacet
facet normal -1.0 0.0 0.0
  outer loop
    vertex 0.0 2.5441941738241596 8.881784197001252e-16
    vertex 0.0 2.7500001738241595 0.8124999999999987
    vertex 0.0 3.0 0.0
  endloop
endfacet
facet normal -1.0 0.0 0.0
  outer loop
    vertex 0.0 3.0 0.0
    vertex 0.0 2.7500001738241595 0.8124999999999987
    vertex 0.0 3.0 1.0625
  endloop
endfacet
facet normal -2.697258491789689e-16 2.135044278125298e-16 1.0
  outer loop
    vertex 7.5 0.24999982617584032 0.8124999999999988
    vertex 7.26104867382416 0.5099998261758407 0.8124999999999987
    vertex 7.26104867382416 0.24999982617584032 0.8124999999999988
  endloop
endfacet
facet normal -2.697258491789689e-16 2.135044278125298e-16 1.0
  outer loop
    vertex 7.26104867382416 0.5099998261758407 0.8124999999999987
    vertex 7.5 0.24999982617584032 0.8124999999999988
    vertex 7.5 0.5099998261758407 0.8124999999999988
  endloop
endfacet
facet normal -5.394516983579377e-16 -0.0 1.0
  outer loop
    vertex 7.5 2.4900001738241597 0.8124999999999988
    vertex 7.26104867382416 2.7500001738241595 0.8124999999999987
    vertex 7.26104867382416 2.4900001738241597 0.8124999999999987
  endloop
endfacet
facet normal -5.394516983579377e-16 -0.0 1.0
  outer loop
    vertex 7.26104867382416 2.7500001738241595 0.8124999999999987
    vertex 7.5 2.4900001738241597 0.8124999999999988
    vertex 7.5 2.7500001738241595 0.8124999999999988
  endloop
endfacet
facet normal 0.0 1.0 0.0
  outer loop
    vertex 7.261048673824161 2.4900001738241597 1.0624999999999998
    vertex 7.5 2.4900001738241597 0.8124999999999988
    vertex 7.26104867382416 2.4900001738241597 0.8124999999999987
  endloop
endfacet
facet normal 0.0 1.0 0.0
  outer loop
    vertex 7.5 2.4900001738241597 0.8124999999999988
    vertex 7.261048673824161 2.4900001738241597 1.0624999999999998
    vertex 7.500000000000001 2.4900001738241597 1.0625000000000002
  endloop
endfacet
facet normal 1.0 -0.0 -0.0
  outer loop
    vertex 7.5 0.4558058261758403 8.881784197001252e-16
    vertex 7.5 0.0 1.0625
    vertex 7.5 0.0 0.0
  endloop
endfacet
facet normal 1.0 -0.0 -0.0
  outer loop
    vertex 7.5 0.0 1.0625
    vertex 7.5 0.4558058261758403 8.881784197001252e-16
    vertex 7.5 0.24999982617584032 0.8124999999999988
  endloop
endfacet
facet normal 1.0 -0.0 -0.0
  outer loop
    vertex 7.5 0.0 1.0625
    vertex 7.5 0.24999982617584032 0.8124999999999988
    vertex 7.5 0.24999982617583966 1.0624999999999978
  endloop
endfacet
facet normal 1.0 -0.0 -0.0
  outer loop
    vertex 7.5 0.24999982617584032 0.8124999999999988
    vertex 7.5 0.4558058261758403 8.881784197001252e-16
    vertex 7.5 0.5099998261758407 0.8124999999999988
  endloop
endfacet
facet normal 1.0 -0.0 -0.0
  outer loop
    vertex 7.5 0.5099998261758407 0.8124999999999988
    vertex 7.5 0.4558058261758403 8.881784197001252e-16
    vertex 7.5 2.5441941738241596 8.881784197001252e-16
  endloop
endfacet
facet normal 1.0 -0.0 -0.0
  outer loop
    vertex 7.5 0.5099998261758407 0.8124999999999988
    vertex 7.5 2.5441941738241596 8.881784197001252e-16
    vertex 7.500000000000001 0.5099998261758407 1.0625000000000002
  endloop
endfacet
facet normal 1.0 -0.0 -0.0
  outer loop
    vertex 7.500000000000001 0.5099998261758407 1.0625000000000002
    vertex 7.5 2.5441941738241596 8.881784197001252e-16
    vertex 7.5 2.4900001738241597 0.8124999999999988
  endloop
endfacet
facet normal 1.0 -0.0 -0.0
  outer loop
    vertex 7.5 2.4900001738241597 0.8124999999999988
    vertex 7.5 2.5441941738241596 8.881784197001252e-16
    vertex 7.5 2.7500001738241595 0.8124999999999988
  endloop
endfacet
facet normal 1.0 -0.0 -0.0
  outer loop
    vertex 7.5 2.7500001738241595 0.8124999999999988
    vertex 7.5 2.5441941738241596 8.881784197001252e-16
    vertex 7.5 3.0 0.0
  endloop
endfacet
facet normal 1.0 -0.0 -0.0
  outer loop
    vertex 7.5 2.7500001738241595 0.8124999999999988
    vertex 7.5 3.0 0.0
    vertex 7.5 2.7500001738241595 1.062499999999999
  endloop
endfacet
facet normal 1.0 -0.0 -0.0
  outer loop
    vertex 7.5 2.7500001738241595 1.062499999999999
    vertex 7.5 3.0 0.0
    vertex 7.5 3.0 1.0625
  endloop
endfacet
facet normal 1.0 -0.0 -0.0
  outer loop
    vertex 7.500000000000001 2.4900001738241597 1.0625000000000002
    vertex 7.500000000000001 0.5099998261758407 1.0625000000000002
    vertex 7.5 2.4900001738241597 0.8124999999999988
  endloop
endfacet
facet normal -1.1476740288418028e-14 1.0 1.3322676295502046e-15
  outer loop
    vertex 0.4889513261758404 0.23895132617575987 2.8790389542088322e-15
    vertex 7.01104867382416 0.23895132617584047 0.6000000000000009
    vertex 7.011048673824159 0.23895132617584125 9.95827724853911e-16
  endloop
endfacet
facet normal -1.1476740288418028e-14 1.0 1.3322676295502046e-15
  outer loop
    vertex 7.01104867382416 0.23895132617584047 0.6000000000000009
    vertex 0.4889513261758404 0.23895132617575987 2.8790389542088322e-15
    vertex 0.48895132617584103 0.23895132617575907 0.6000000000000028
  endloop
endfacet
facet normal -1.1476740288418028e-14 1.0 1.3322676295502046e-15
  outer loop
    vertex 0.2389513261758422 0.23895132617575846 1.0624999999999993
    vertex 0.48895132617584103 0.23895132617575907 0.6000000000000028
    vertex 0.23895132617584106 0.23895132617575907 0.6000000000000028
  endloop
endfacet
facet normal -1.1476740288418028e-14 1.0 1.3322676295502046e-15
  outer loop
    vertex 0.48895132617584103 0.23895132617575907 0.6000000000000028
    vertex 0.2389513261758422 0.23895132617575846 1.0624999999999993
    vertex 7.26104867382416 0.2389513261758398 1.062499999999998
  endloop
endfacet
facet normal -1.1476740288418028e-14 1.0 1.3322676295502046e-15
  outer loop
    vertex 7.01104867382416 0.23895132617584047 0.6000000000000009
    vertex 7.26104867382416 0.2389513261758398 1.062499999999998
    vertex 7.26104867382416 0.23895132617584044 0.6000000000000008
  endloop
endfacet
facet normal -1.1476740288418028e-14 1.0 1.3322676295502046e-15
  outer loop
    vertex 7.26104867382416 0.2389513261758398 1.062499999999998
    vertex 7.01104867382416 0.23895132617584047 0.6000000000000009
    vertex 0.48895132617584103 0.23895132617575907 0.6000000000000028
  endloop
endfacet
facet normal 0.0 -1.0 0.0
  outer loop
    vertex 7.26104867382416 2.7610486738241597 1.0624999999999987
    vertex 7.01104867382416 2.7610486738241597 0.6000000000000009
    vertex 7.26104867382416 2.7610486738241597 0.6000000000000008
  endloop
endfacet
facet normal 0.0 -1.0 0.0
  outer loop
    vertex 7.01104867382416 2.7610486738241597 9.95827724853911e-16
    vertex 0.48895132617584014 2.7610486738241597 0.5999999999999798
    vertex 0.48895132617584086 2.7610486738241597 9.039005821821775e-16
  endloop
endfacet
facet normal 0.0 -1.0 0.0
  outer loop
    vertex 0.48895132617584014 2.7610486738241597 0.5999999999999798
    vertex 7.01104867382416 2.7610486738241597 9.95827724853911e-16
    vertex 7.01104867382416 2.7610486738241597 0.6000000000000009
  endloop
endfacet
facet normal 0.0 -1.0 0.0
  outer loop
    vertex 0.48895132617584014 2.7610486738241597 0.5999999999999798
    vertex 7.01104867382416 2.7610486738241597 0.6000000000000009
    vertex 0.23895132617584014 2.7610486738241597 0.5999999999999798
  endloop
endfacet
facet normal 0.0 -1.0 0.0
  outer loop
    vertex 0.23895132617584014 2.7610486738241597 0.5999999999999798
    vertex 7.01104867382416 2.7610486738241597 0.6000000000000009
    vertex 0.23895132617584086 2.7610486738241597 1.0624999999999987
  endloop
endfacet
facet normal 0.0 -1.0 0.0
  outer loop
    vertex 0.23895132617584086 2.7610486738241597 1.0624999999999987
    vertex 7.01104867382416 2.7610486738241597 0.6000000000000009
    vertex 7.26104867382416 2.7610486738241597 1.0624999999999987
  endloop
endfacet
facet normal 1.0 5.816756803060197e-17 -1.0162027261389204e-15
  outer loop
    vertex 0.23895132617584106 0.23895132617575907 0.6000000000000028
    vertex 0.2389513261758403 0.24999982617584027 1.0624999999999987
    vertex 0.2389513261758422 0.23895132617575846 1.0624999999999993
  endloop
endfacet
facet normal 1.0 5.816756803060197e-17 -1.0162027261389204e-15
  outer loop
    vertex 0.2389513261758403 0.24999982617584027 1.0624999999999987
    vertex 0.23895132617584106 0.23895132617575907 0.6000000000000028
    vertex 0.2389513261758403 0.24999982617584027 0.8124999999999987
  endloop
endfacet
facet normal 1.0 5.816756803060197e-17 -1.0162027261389204e-15
  outer loop
    vertex 0.23895132617584014 2.7610486738241597 0.5999999999999798
    vertex 0.2389513261758403 0.24999982617584027 0.8124999999999987
    vertex 0.23895132617584106 0.23895132617575907 0.6000000000000028
  endloop
endfacet
facet normal 1.0 5.816756803060197e-17 -1.0162027261389204e-15
  outer loop
    vertex 0.2389513261758403 0.24999982617584027 0.8124999999999987
    vertex 0.23895132617584014 2.7610486738241597 0.5999999999999798
    vertex 0.23895132617584106 0.5099998261758403 0.8124999999999987
  endloop
endfacet
facet normal 1.0 5.816756803060197e-17 -1.0162027261389204e-15
  outer loop
    vertex 0.23895132617584106 0.5099998261758403 0.8124999999999987
    vertex 0.23895132617584014 2.7610486738241597 0.5999999999999798
    vertex 0.23895132617584106 0.5099998261758403 1.0624999999999987
  endloop
endfacet
facet normal 1.0 5.816756803060197e-17 -1.0162027261389204e-15
  outer loop
    vertex 0.23895132617584106 0.5099998261758403 1.0624999999999987
    vertex 0.23895132617584014 2.7610486738241597 0.5999999999999798
    vertex 0.23895132617584106 2.4900001738241597 0.8124999999999987
  endloop
endfacet
facet normal 1.0 5.816756803060197e-17 -1.0162027261389204e-15
  outer loop
    vertex 0.23895132617584106 2.4900001738241597 0.8124999999999987
    vertex 0.23895132617584014 2.7610486738241597 0.5999999999999798
    vertex 0.23895132617584106 2.7500001738241595 0.8124999999999987
  endloop
endfacet
facet normal 1.0 5.816756803060197e-17 -1.0162027261389204e-15
  outer loop
    vertex 0.23895132617584106 2.7500001738241595 0.8124999999999987
    vertex 0.23895132617584014 2.7610486738241597 0.5999999999999798
    vertex 0.23895132617584106 2.7500001738241595 1.0624999999999987
  endloop
endfacet
facet normal 1.0 5.816756803060197e-17 -1.0162027261389204e-15
  outer loop
    vertex 0.23895132617584106 2.7500001738241595 1.0624999999999987
    vertex 0.23895132617584014 2.7610486738241597 0.5999999999999798
    vertex 0.23895132617584086 2.7610486738241597 1.0624999999999987
  endloop
endfacet
facet normal 1.0 5.816756803060197e-17 -1.0162027261389204e-15
  outer loop
    vertex 0.23895132617584106 2.4900001738241597 1.0624999999999987
    vertex 0.23895132617584106 0.5099998261758403 1.0624999999999987
    vertex 0.23895132617584106 2.4900001738241597 0.8124999999999987
  endloop
endfacet
facet normal 3.700743415417188e-16 -0.0 1.0
  outer loop
    vertex 7.26104867382416 0.23895132617584044 0.6000000000000008
    vertex 7.01104867382416 2.7610486738241597 0.6000000000000009
    vertex 7.01104867382416 0.23895132617584047 0.6000000000000009
  endloop
endfacet
facet normal 3.700743415417188e-16 -0.0 1.0
  outer loop
    vertex 7.01104867382416 2.7610486738241597 0.6000000000000009
    vertex 7.26104867382416 0.23895132617584044 0.6000000000000008
    vertex 7.26104867382416 2.7610486738241597 0.6000000000000008
  endloop
endfacet
endsolid Blank_Module_Frame
